<svg class="svg-icon" fill="#0062f4" style="width: 1em;height: 1em; color: blue;vertical-align: middle;fill: currentColor: blue;overflow: hidden;" viewBox="0 0 1024 1024" version="1.1" xmlns="http://www.w3.org/2000/svg"><path d="M512 212.468019m-43.132605 0a43.132605 43.132605 0 1 0 86.26521 0 43.132605 43.132605 0 1 0-86.26521 0Z"  /><path d="M512 383.400936m-43.132605 0a43.132605 43.132605 0 1 0 86.26521 0 43.132605 43.132605 0 1 0-86.26521 0Z"  /><path d="M512 554.333853m-43.132605 0a43.132605 43.132605 0 1 0 86.26521 0 43.132605 43.132605 0 1 0-86.26521 0Z"  /><path d="M609.447738 651.781591L512 749.229329l-97.447738-97.447738c-17.572543-17.572543-43.132605-17.572543-59.107644 0s-17.572543 43.132605 0 59.107645l127.800312 127.800312c7.98752 7.98752 20.767551 12.780031 30.352574 12.780031s20.767551-4.792512 30.352574-12.780031l127.800312-127.800312c17.572543-17.572543 17.572543-43.132605 0-59.107645-19.170047-17.572543-44.730109-17.572543-62.302652 0z"  /><path d="M555.132605 0h-84.667706C302.726989 0 171.731669 132.592824 171.731669 298.733229v426.533542c0 166.140406 132.592824 298.733229 298.73323 298.733229h84.667706c166.140406 0 298.733229-132.592824 298.73323-298.733229V298.733229C852.268331 132.592824 721.273011 0 555.132605 0zM767.600624 723.669267c0 119.812793-94.25273 212.468019-212.468019 212.468018h-84.667706c-119.812793 0-212.468019-94.25273-212.468019-212.468018V298.733229c0-119.812793 94.25273-212.468019 212.468019-212.468018h84.667706c119.812793 0 212.468019 94.25273 212.468019 212.468018v424.936038z"  /></svg>