 <svg  version="1.0" xmlns="http://www.w3.org/2000/svg"  width="240.000000pt" height="152.000000pt" viewBox="0 0 240.000000 152.000000"  preserveAspectRatio="xMidYMid meet">  <g transform="translate(0.000000,152.000000) scale(0.100000,-0.100000)" fill="#000000" stroke="none"> <path d="M1105 1130 c-10 -11 -16 -23 -12 -26 3 -3 10 4 17 15 8 15 20 21 45 21 19 0 35 -4 35 -9 0 -9 -30 -25 -42 -23 -5 1 -8 -4 -8 -12 0 -26 14 -24 41 5 18 19 23 31 15 39 -17 17 -71 12 -91 -10z"/> <path d="M1321 1086 c-7 -28 -18 -46 -28 -49 -14 -4 -13 -5 4 -6 27 -1 30 3 38 57 8 55 0 54 -14 -2z"/> <path d="M1090 1081 c0 -6 8 -19 18 -29 16 -16 17 -22 5 -37 -19 -28 -18 -51 3 -31 8 9 12 21 8 28 -6 10 -5 10 7 1 23 -18 17 -81 -9 -99 -32 -22 -52 -66 -55 -119 -2 -38 -9 -54 -41 -88 -42 -46 -56 -74 -48 -96 6 -17 70 -8 121 18 32 17 40 17 61 5 33 -18 114 -18 148 0 15 8 37 25 49 38 42 44 68 138 43 153 -5 3 -9 -2 -8 -12 3 -40 -2 -84 -10 -79 -5 3 -33 41 -62 86 -33 48 -61 80 -71 80 -10 0 -38 -28 -64 -65 -38 -54 -44 -69 -35 -80 20 -24 36 -18 64 25 14 22 30 40 34 40 4 0 28 -34 54 -75 l46 -74 -26 -17 c-31 -20 -119 -33 -108 -15 4 6 17 11 28 11 12 0 18 3 15 7 -4 3 1 12 11 19 22 16 2 40 -25 30 -15 -6 -15 -9 -3 -17 12 -9 12 -10 -3 -5 -10 3 -34 -3 -53 -13 -33 -18 -37 -18 -55 -3 -19 17 -19 17 3 22 21 5 24 11 20 40 -3 20 -43 10 -51 -12 -7 -17 -4 -28 11 -44 l20 -22 -58 -21 c-91 -35 -111 -11 -48 59 29 32 39 38 51 29 11 -10 12 -8 3 15 -5 15 -10 31 -10 36 0 17 32 40 57 40 19 0 23 3 15 13 -19 23 11 69 53 80 19 5 19 5 -3 12 -23 8 -47 67 -30 74 5 1 1 9 -8 16 -10 7 -15 19 -11 29 7 19 43 22 50 4 4 -10 6 -10 6 0 1 9 6 10 20 2 13 -7 22 -7 26 0 3 5 -3 10 -14 10 -12 0 -21 7 -21 15 0 8 -5 15 -11 15 -5 0 -8 -4 -5 -9 3 -5 -11 -11 -32 -15 -30 -5 -40 -2 -54 15 -10 12 -18 16 -18 10z m55 -198 c-15 -16 -31 -37 -36 -48 -6 -16 -8 -17 -8 -3 -1 19 45 78 61 78 6 0 -2 -12 -17 -27z"/> <path d="M1250 1031 c-7 -11 -16 -19 -19 -19 -3 1 -17 -3 -30 -9 -24 -9 -24 -10 -4 -15 21 -6 73 32 73 52 0 14 -4 12 -20 -9z"/> <path d="M1289 1011 c16 -10 6 -31 -15 -31 -8 0 -14 -5 -14 -12 0 -6 -10 -22 -22 -36 l-23 -23 26 10 c23 8 30 6 48 -16 14 -15 28 -22 38 -18 16 5 33 -10 33 -29 0 -6 -7 -1 -16 10 -14 18 -15 18 -8 -6 10 -39 21 -45 49 -30 38 20 95 81 102 108 9 37 -10 48 -59 35 -38 -10 -44 -9 -56 8 -7 11 -18 17 -23 14 -5 -4 -19 1 -31 9 -12 9 -27 16 -33 16 -5 0 -4 -4 4 -9z m34 -38 c-6 -17 -5 -17 14 0 26 23 44 3 19 -21 -13 -14 -20 -14 -36 -4 -24 15 -30 15 -30 2 0 -5 7 -10 15 -10 8 0 15 -5 15 -10 0 -7 6 -7 18 -1 9 5 19 9 22 9 3 0 18 5 33 11 35 13 87 14 87 2 0 -13 -62 -94 -75 -98 -6 -2 -19 11 -29 27 -15 26 -22 30 -44 25 -22 -4 -30 0 -42 22 -14 25 -14 30 -1 46 9 9 21 17 28 17 8 0 10 -7 6 -17z"/> <path d="M897 507 c-3 -9 0 -20 8 -24 18 -11 9 -50 -14 -56 -14 -4 -14 -5 2 -6 28 -2 42 41 25 74 -12 22 -16 24 -21 12z"/> <path d="M935 498 c3 -13 9 -33 12 -45 3 -13 11 -23 19 -23 10 0 10 9 -4 45 -16 45 -40 65 -27 23z"/> <path d="M1018 475 c2 -25 8 -45 13 -45 5 0 9 20 9 45 0 29 -4 45 -13 45 -8 0 -11 -14 -9 -45z"/> <path d="M1055 474 c0 -44 0 -44 17 -24 12 14 15 28 9 42 -14 38 -26 30 -26 -18z"/> <path d="M1164 493 c8 -16 17 -36 20 -45 3 -10 9 -18 14 -18 5 0 3 20 -6 45 -8 26 -21 45 -29 45 -12 0 -12 -4 1 -27z"/> <path d="M1224 505 c-3 -8 4 -27 15 -41 15 -20 18 -31 11 -38 -8 -8 -14 -7 -20 4 -7 11 -10 11 -10 2 0 -19 28 -26 45 -12 14 11 13 17 -5 47 -24 41 -25 47 -5 39 8 -3 15 -1 15 4 0 16 -40 11 -46 -5z"/> <path d="M1318 475 c2 -25 8 -45 13 -45 6 0 8 20 7 45 -2 25 -8 45 -13 45 -6 0 -9 -19 -7 -45z"/> <path d="M1388 475 c5 -58 18 -58 17 0 0 25 -5 45 -10 45 -6 0 -9 -19 -7 -45z"/> <path d="M1422 489 c-1 -43 14 -79 33 -79 14 0 13 4 -4 28 -12 17 -18 37 -15 49 3 12 2 23 -4 27 -5 3 -9 -8 -10 -25z"/> <path d="M1493 494 c0 -15 -5 -29 -10 -33 -9 -7 -16 -31 -8 -31 3 0 12 14 19 31 l13 31 6 -31 c4 -17 11 -31 17 -31 14 0 13 11 -5 54 -18 43 -29 46 -32 10z"/> <path d="M982 501 c4 -13 18 -16 19 -4 0 4 -5 9 -11 12 -7 2 -11 -2 -8 -8z"/> <path d="M1126 502 c-4 -6 0 -15 8 -19 18 -10 11 -50 -10 -56 -9 -3 -7 -4 3 -3 26 2 41 52 21 72 -10 10 -18 12 -22 6z"/> </g> </svg> 