<svg version="1.1" id="Layer_1" xmlns="http://www.w3.org/2000/svg" xmlns:xlink="http://www.w3.org/1999/xlink" x="0px" y="0px"
	 width="100%" viewBox="0 0 500 500" enable-background="new 0 0 500 500" xml:space="preserve">
<path fill="#000000" opacity="1.000000" stroke="none" 
	d="
M331.000000,501.000000 
	C220.666687,501.000000 110.833389,501.000000 1.000059,501.000000 
	C1.000039,334.333405 1.000039,167.666794 1.000020,1.000148 
	C167.666565,1.000099 334.333130,1.000099 500.999756,1.000049 
	C500.999847,167.666519 500.999847,334.333038 500.999939,500.999786 
	C444.500000,501.000000 388.000000,501.000000 331.000000,501.000000 
M266.951599,341.434814 
	C266.646820,341.253510 266.342041,341.072205 266.026001,340.987610 
	C266.026001,340.987610 266.122009,340.971619 265.998413,340.352631 
	C265.681915,339.871521 265.365417,339.390381 265.019348,338.989868 
	C265.019348,338.989868 265.103638,338.973663 265.030884,338.180542 
	C265.569214,336.184875 266.107544,334.189240 266.645874,332.193573 
	C267.126007,332.276825 267.606140,332.360046 268.086273,332.443298 
	C268.399139,333.160187 268.551300,334.029633 269.057526,334.563049 
	C270.200562,335.767487 271.456512,336.902008 272.840607,337.795258 
	C273.022003,337.912354 274.954407,336.251190 274.820160,335.750000 
	C274.389191,334.141266 273.719696,331.880951 272.500824,331.353119 
	C270.219299,330.365173 267.325470,329.699707 264.987030,330.228851 
	C262.433502,330.806641 258.965424,332.405365 258.178345,334.441376 
	C257.201630,336.967926 258.191498,340.515381 259.076355,343.392944 
	C259.531189,344.872040 261.602753,345.854004 262.997498,346.998596 
	C262.997498,346.998596 262.935425,347.054810 263.008728,347.770660 
	C264.382812,349.744751 266.015228,351.591095 267.069489,353.723328 
	C268.587250,356.793060 269.286530,360.465515 265.811676,362.417206 
	C261.581085,364.793304 262.744934,359.550415 261.006989,358.277100 
	C259.875702,357.448273 258.496399,356.958069 257.228180,356.316162 
	C256.838837,357.832367 255.782043,359.554108 256.174744,360.829529 
	C257.955872,366.614716 266.868591,367.778839 272.558899,362.981415 
	C272.558899,362.981415 273.029144,362.814178 273.729065,362.696899 
	C277.081177,359.461243 277.449036,355.863159 275.006866,351.997711 
	C275.006866,351.997711 275.076660,351.966492 274.988281,351.316040 
	C274.337738,350.521027 273.687225,349.725983 273.003448,348.997009 
	C273.003448,348.997009 273.071259,348.967499 273.019897,348.286804 
	C272.042114,347.145874 271.064331,346.004944 270.040283,344.960083 
	C270.040283,344.960083 270.146484,344.950592 269.967346,344.423950 
	C269.660065,344.234253 269.352753,344.044586 269.027069,343.972656 
	C269.027069,343.972656 269.144440,343.952118 268.967560,343.425507 
	C268.661041,343.235657 268.354523,343.045807 268.027679,342.971649 
	C268.027679,342.971649 268.143494,342.951843 267.953644,342.435425 
	C267.650818,342.244812 267.347961,342.054199 267.027039,341.972382 
	C267.027039,341.972382 267.135254,341.951202 266.951599,341.434814 
M294.721680,145.462357 
	C294.721680,145.462357 294.502747,145.124725 294.502747,145.124725 
	C294.502747,145.124725 294.103302,145.172943 294.115112,144.474350 
	C294.408905,143.862610 294.702667,143.250870 295.693237,142.618011 
	C295.826385,140.501816 295.959534,138.385620 296.166290,136.135086 
	C296.166290,136.135086 296.116882,135.990082 296.412323,135.884262 
	C296.484131,135.519562 296.358887,135.273529 295.990509,134.454697 
	C295.821533,134.072174 295.652557,133.689651 295.309692,132.913406 
	C295.129547,134.252396 295.007355,135.160583 294.431305,136.158188 
	C294.101440,136.353897 294.028625,136.619797 294.035461,137.736755 
	C293.648285,139.526398 293.261139,141.316040 292.195129,142.800201 
	C291.867157,142.811905 291.539185,142.823608 291.211212,142.835297 
	C291.542633,143.470520 291.874054,144.105728 291.940155,145.501419 
	C291.555817,147.410645 291.171509,149.319870 290.248169,151.139603 
	C290.175110,151.671494 290.102020,152.203384 289.922516,153.565781 
	C289.935089,154.398529 289.947632,155.231277 289.273834,156.241318 
	C288.220215,157.345001 287.166626,158.448685 285.342926,159.436157 
	C284.323029,159.508774 283.303101,159.581406 281.586243,159.306122 
	C280.761505,159.244598 279.509766,158.806335 279.179321,159.180878 
	C276.436188,162.290283 275.209351,161.847153 274.678223,157.745087 
	C274.548035,156.739700 273.002747,155.151077 272.096252,155.142944 
	C267.754669,155.103897 263.409027,155.515762 258.341797,156.042130 
	C254.077805,157.488586 252.864441,156.329193 252.799683,151.630493 
	C252.782791,150.404800 251.321320,148.625702 250.094162,148.097061 
	C246.352692,146.485321 242.401855,145.359589 238.854141,144.111130 
	C238.854141,144.111130 238.921982,143.789795 239.654404,143.640930 
	C239.447952,142.333878 239.241486,141.026810 239.170563,139.260971 
	C239.170563,139.260971 238.709290,139.134155 239.288925,138.658630 
	C242.601791,136.727509 245.917313,134.800934 249.226593,132.863708 
	C251.563538,131.495712 251.475784,130.062897 249.661743,128.141418 
	C245.002579,123.206306 239.115326,122.606056 232.868942,122.982193 
	C223.714951,123.533409 215.072906,132.177048 215.118774,141.148834 
	C215.129745,143.294708 216.629501,145.391220 216.996201,147.585373 
	C217.851685,152.704437 222.306503,157.680893 227.239929,159.376617 
	C227.251907,159.548752 227.263870,159.720901 226.950241,160.470047 
	C226.649261,161.230301 226.348282,161.990555 225.367157,163.093750 
	C224.523834,165.142960 223.680511,167.192184 222.053543,169.166367 
	C221.030487,170.287643 219.046600,171.510147 219.152206,172.512497 
	C219.587936,176.648483 220.657242,180.717712 222.039612,185.374329 
	C222.542007,190.246292 227.209061,190.753860 230.046967,193.534561 
	C230.046967,193.534561 229.971939,193.978897 229.322174,194.184372 
	C228.201569,195.118668 227.080856,196.052826 225.960342,196.987244 
	C216.748932,204.668915 209.714172,213.791977 206.180618,226.150452 
	C206.023743,227.616440 205.727356,229.082947 205.733017,230.548309 
	C205.765747,239.009979 205.869812,247.471390 205.336868,256.202179 
	C195.445084,265.737640 186.648087,276.091736 179.537018,287.960938 
	C177.012115,292.175262 176.126053,296.296936 178.137115,300.056458 
	C180.402069,304.290558 185.150864,304.555359 189.624222,303.474701 
	C192.265015,302.836731 194.842270,301.935760 197.448105,301.153107 
	C197.400879,300.669983 197.353653,300.186890 197.306427,299.703796 
	C195.537109,299.703796 193.724869,299.456390 192.007202,299.754272 
	C188.198151,300.414856 183.822189,300.266449 182.549866,296.716431 
	C181.516693,293.833710 182.215530,288.937012 184.159134,286.627472 
	C191.630997,277.748901 199.912659,269.551788 207.990570,261.827271 
	C212.321838,270.584442 217.117554,279.003784 224.913025,285.894897 
	C223.370071,286.907013 221.910400,288.087280 220.268860,288.900360 
	C214.917557,291.550903 209.499847,294.067383 204.107697,296.635437 
	C204.370560,297.229004 204.633423,297.822540 204.896286,298.416077 
	C214.140320,297.768494 221.857346,292.724823 230.651718,289.113800 
	C233.114273,290.101379 235.576843,291.088959 238.361526,292.688171 
	C240.531937,293.786865 242.612045,295.144470 244.888718,295.938507 
	C253.764130,299.034027 262.871368,299.862793 272.096466,297.825806 
	C284.438019,295.100647 296.227264,291.293579 304.477112,279.812317 
	C309.104614,275.863983 312.521027,271.220856 313.760223,264.849640 
	C314.483246,263.695740 315.362671,262.610565 315.904572,261.377075 
	C320.350708,251.256744 319.960938,240.661301 319.013550,229.253677 
	C319.823364,227.571503 320.312988,225.609375 321.497406,224.254745 
	C327.185364,217.749512 333.061066,211.408417 339.152893,204.369888 
	C341.726593,200.579071 344.300262,196.788254 347.031311,192.195343 
	C349.360687,185.787415 347.692108,181.357681 341.386139,180.054886 
	C337.453888,179.242477 333.066772,179.895691 329.007690,180.602631 
	C322.610046,181.716919 316.316681,183.429916 310.007812,184.131149 
	C309.339935,179.455612 306.542938,175.787170 302.458923,174.488724 
	C300.018188,173.712708 296.658905,175.825912 293.763641,176.568787 
	C293.763641,176.568787 293.764404,176.480789 293.364746,175.910934 
	C288.705566,171.824280 284.762329,166.656570 278.089020,165.109497 
	C278.385803,164.102295 278.682556,163.095108 278.794037,162.716766 
	C280.822571,162.281296 282.493042,161.922668 284.964172,161.717239 
	C287.221893,160.667542 291.392242,164.353592 292.654083,158.743591 
	C293.009949,156.181961 293.365814,153.620316 293.923492,150.495895 
	C293.675049,150.019516 293.426636,149.543152 293.297211,148.366028 
	C293.337036,147.894012 293.376892,147.421997 293.541840,147.129730 
	C293.541840,147.129730 293.709381,146.988678 294.373077,146.935425 
	C294.484802,146.578705 294.596527,146.222000 294.721680,145.462357 
M271.168518,145.838547 
	C271.168518,145.838547 271.332275,145.872787 271.134308,146.333939 
	C271.408234,146.255890 271.682159,146.177841 272.560822,146.203613 
	C273.665314,145.765213 274.769806,145.326813 276.512268,144.635193 
	C274.633423,143.563858 273.516815,142.927155 272.430054,142.307465 
	C271.833405,143.501114 271.420166,144.327835 270.525879,145.176270 
	C270.730072,145.342178 270.934235,145.508072 271.168518,145.838547 
M284.012573,334.009583 
	C284.012573,334.009583 284.003662,334.088348 284.639587,333.988281 
	C285.138824,333.681824 285.638062,333.375366 286.052765,332.993378 
	C286.052765,332.993378 285.976379,333.077179 286.815796,332.970612 
	C287.250580,335.207764 287.685364,337.444885 287.995209,340.650940 
	C287.985687,344.119110 287.714233,347.612457 288.044434,351.047974 
	C288.341187,354.135193 289.298737,357.158875 290.414886,360.819702 
	C291.932648,360.825623 293.450409,360.831543 295.548065,360.923431 
	C295.666626,360.587677 295.785187,360.251923 296.038330,359.486572 
	C296.038330,359.486572 296.058533,359.036804 296.800293,358.590118 
	C296.800293,350.075714 296.800293,341.561279 296.800293,333.065063 
	C299.064819,333.065063 300.548279,333.065063 301.961853,332.966614 
	C301.961853,332.966614 301.859650,333.030823 302.025330,333.617889 
	C302.032532,334.020721 302.039703,334.423523 301.321564,335.182465 
	C301.982056,337.685364 302.642548,340.188293 303.303040,342.691193 
	C305.285950,342.101868 307.268860,341.512573 310.083435,340.992645 
	C310.398865,342.649445 310.846985,344.293823 311.003265,345.965515 
	C311.378174,349.975677 311.616089,353.998657 311.942322,358.800262 
	C315.045502,362.119965 317.285156,361.872528 319.845764,357.593018 
	C320.168121,354.380066 320.490479,351.167084 320.969391,348.690033 
	C322.596680,351.981476 323.923126,355.472412 325.936127,358.508087 
	C327.935608,361.523407 330.625671,364.080780 333.700684,367.212646 
	C336.081757,366.924408 338.462830,366.636169 340.843903,366.347961 
	C340.469635,365.336700 340.095367,364.325439 339.867065,363.708557 
	C341.616089,361.749878 344.004608,360.104614 344.891907,357.864685 
	C346.677917,353.355865 349.254761,351.508392 354.013794,353.851868 
	C356.974579,361.674225 359.661865,362.858032 366.085022,358.979675 
	C363.541718,356.573853 360.809357,354.066681 364.653931,352.204620 
	C362.630371,348.658905 360.725403,345.320892 358.912842,341.211578 
	C357.871399,338.328522 356.829956,335.445435 355.672852,332.333771 
	C355.672852,332.333771 355.456635,332.196442 355.078491,331.603973 
	C352.896851,331.209167 350.715179,330.814362 348.008057,330.394867 
	C347.496399,330.419983 346.984711,330.445099 345.676025,330.138947 
	C343.827911,330.528717 341.508606,330.356628 340.231567,331.427460 
	C337.719513,333.533875 334.420074,336.114166 336.623993,339.979553 
	C338.416199,343.122864 341.527893,344.194885 345.592804,342.091797 
	C345.768585,342.641235 345.944397,343.190643 345.414978,344.112671 
	C346.007721,349.439392 340.305908,348.837891 337.806030,351.764587 
	C339.414246,352.514038 340.658722,353.093994 343.000977,354.185516 
	C340.790497,356.641815 338.870697,358.775177 336.273682,360.775543 
	C334.143646,357.021576 332.459991,352.899109 329.753876,349.620667 
	C327.214539,346.544281 327.443390,344.461548 330.727417,341.653809 
	C332.838623,334.193481 329.308807,329.902374 321.175781,330.377075 
	C320.953064,330.356934 320.734406,330.378418 319.571625,330.130005 
	C309.085327,330.090210 298.581177,329.692535 288.122955,330.214691 
	C284.700439,330.385590 280.852448,332.340881 278.263031,334.665375 
	C276.911591,335.878571 277.320007,339.844757 278.079926,342.197205 
	C278.354279,343.046387 282.141205,343.435974 284.034790,342.935791 
	C287.230347,342.091705 285.775452,339.711243 284.568085,337.149597 
	C283.767120,336.468231 282.966125,335.786896 282.674591,335.115021 
	C282.831451,335.049866 282.988312,334.984741 283.629944,334.859955 
	C283.911652,334.651367 284.065247,334.372253 284.012573,334.009583 
M181.458084,332.077484 
	C181.276474,332.378723 181.094864,332.679962 180.985214,332.983368 
	C180.985214,332.983368 180.960205,332.915863 180.344986,333.197601 
	C180.293945,334.076813 180.242905,334.956024 179.905121,336.489502 
	C180.408905,338.298706 180.434860,341.214935 181.517792,341.682373 
	C183.651505,342.603394 186.371582,342.165985 189.000412,342.298004 
	C189.000412,346.324493 188.745590,350.792786 189.126083,355.206268 
	C189.277832,356.966644 190.516373,359.653564 191.825256,360.049194 
	C193.680664,360.610046 196.058762,359.441650 198.951859,359.001953 
	C200.591690,358.616913 202.231537,358.231842 204.625900,357.969604 
	C209.551559,356.677795 213.140427,353.461823 213.826904,348.630676 
	C214.723877,342.318146 214.236618,335.905518 207.866821,331.405487 
	C207.580048,331.240997 207.293259,331.076538 207.017029,330.984924 
	C207.017029,330.984924 207.088715,330.968140 206.850861,330.391663 
	C206.258926,330.296906 205.666992,330.202148 204.679230,329.907867 
	C204.679230,329.907867 204.240524,329.971405 203.750061,329.221619 
	C198.075439,329.482452 192.400818,329.743317 186.336792,329.919891 
	C186.336792,329.919891 185.988693,330.113770 185.347870,330.053375 
	C184.869476,330.359711 184.391083,330.666016 183.991241,331.000946 
	C183.991241,331.000946 184.019058,330.922119 183.377670,331.041565 
	C182.890152,331.345795 182.402634,331.650024 181.980713,331.986511 
	C181.980713,331.986511 181.975967,331.913544 181.458084,332.077484 
M243.024994,330.977905 
	C243.024994,330.977905 243.092987,330.943604 242.866074,330.332336 
	C242.247864,330.284485 241.629654,330.236633 240.344971,330.074524 
	C239.901062,330.132782 239.457169,330.191040 238.144379,330.107330 
	C234.907715,330.800293 231.160843,330.735260 228.612381,332.450653 
	C226.891541,333.608948 226.492401,337.245117 226.268539,339.839020 
	C226.188293,340.768799 228.347229,342.728546 229.497070,342.738556 
	C231.389481,342.755005 233.292389,341.566406 235.190872,340.885803 
	C235.115768,340.343048 235.040680,339.800293 234.965591,339.257538 
	C233.316177,338.587311 231.666763,337.917114 228.449890,336.609985 
	C231.375351,334.803467 233.271484,333.405090 235.383347,332.523438 
	C235.797592,332.350525 237.954178,334.683105 237.774612,335.004761 
	C234.838470,340.265717 237.574249,349.093872 228.314499,350.441711 
	C228.197830,350.458679 228.159180,351.011597 227.994003,351.677795 
	C229.263260,352.356201 230.597137,353.069153 232.692795,354.189270 
	C230.239731,356.904907 228.008377,359.375061 225.900421,361.708649 
	C229.051468,363.266785 231.380692,362.188843 234.004547,357.737610 
	C235.562531,355.094543 237.422546,352.629517 239.539917,350.040955 
	C239.539917,350.040955 239.926147,350.126221 240.237869,350.660553 
	C241.137329,351.117188 242.036789,351.573853 243.217560,352.693024 
	C243.831131,353.802643 244.570709,354.862061 245.036163,356.030670 
	C246.931534,360.789490 248.417542,361.172119 253.121628,357.733856 
	C251.708710,353.380157 250.225327,348.951050 248.841904,344.490906 
	C248.073975,342.015076 247.472931,339.487488 246.924332,336.297729 
	C245.959335,334.843567 244.994324,333.389374 244.005127,331.995392 
	C244.005127,331.995392 244.069427,331.987000 243.927216,331.460602 
	C243.626846,331.274323 243.326462,331.088043 243.024994,330.977905 
M303.707489,160.685532 
	C305.808960,158.514771 305.808960,158.514771 303.364838,156.566513 
	C302.862488,157.119415 302.371857,157.659439 301.245422,158.397827 
	C301.860809,159.062424 302.476196,159.727036 303.707489,160.685532 
M172.009415,339.994781 
	C172.009415,339.994781 172.077576,339.990784 172.025314,339.190002 
	C171.352264,335.266388 171.204636,330.988190 165.206757,330.062134 
	C164.478729,330.129211 163.750702,330.196289 162.187195,330.133270 
	C157.127731,329.387939 153.641800,331.537720 151.551544,336.056274 
	C150.993332,337.263000 150.063034,339.240601 150.542694,339.797974 
	C151.724487,341.171326 153.520050,342.369690 155.271561,342.786377 
	C156.641296,343.112244 158.315109,342.159882 160.177246,341.694672 
	C159.226791,344.626129 158.390625,347.205109 157.570236,349.735443 
	C155.970322,350.024078 154.483383,350.292358 153.521744,350.465851 
	C154.238724,352.593933 155.588516,354.485931 155.286133,356.060608 
	C153.799911,363.800201 148.418427,356.617706 144.490540,358.690765 
	C145.652039,360.208588 146.432419,362.330719 147.673279,362.647095 
	C151.704620,363.675171 155.544006,362.819092 158.000183,359.047974 
	C159.897522,356.134857 161.498108,353.028412 163.769073,349.970612 
	C164.130386,350.003662 164.491684,350.036713 165.220230,350.699219 
	C166.499207,352.610443 168.100983,354.383301 168.991348,356.461060 
	C170.976425,361.093506 173.998123,362.184601 178.379532,359.679840 
	C176.506683,353.415283 174.649963,347.204681 172.859558,340.480743 
	C172.580872,340.296478 172.302200,340.112244 172.009415,339.994781 
z"/>
<path fill="#F6F5F5" opacity="1.000000" stroke="none" 
	d="
M227.492661,158.920151 
	C222.306503,157.680893 217.851685,152.704437 216.996201,147.585373 
	C216.629501,145.391220 215.129745,143.294708 215.118774,141.148834 
	C215.072906,132.177048 223.714951,123.533409 232.868942,122.982193 
	C239.115326,122.606056 245.002579,123.206306 249.661743,128.141418 
	C251.475784,130.062897 251.563538,131.495712 249.226593,132.863708 
	C245.917313,134.800934 242.601791,136.727509 238.665497,138.807007 
	C236.768127,139.979034 235.494171,141.002686 234.220215,142.026337 
	C235.657654,142.699127 237.095078,143.371902 238.532516,144.044693 
	C242.401855,145.359589 246.352692,146.485321 250.094162,148.097061 
	C251.321320,148.625702 252.782791,150.404800 252.799683,151.630493 
	C252.864441,156.329193 254.077805,157.488586 259.008698,156.088867 
	C261.532623,156.401642 263.385345,156.704208 265.247772,156.924759 
	C267.790955,157.225937 270.341553,157.464600 272.888977,157.730072 
	C272.967224,158.379868 273.045502,159.029663 273.123749,159.679459 
	C270.560242,161.080917 267.996735,162.482391 265.277191,163.969162 
	C265.211884,165.084167 265.125305,166.562119 264.748779,168.004272 
	C264.110504,168.260956 263.762207,168.553421 263.413879,168.845886 
	C263.590240,169.053909 263.766632,169.261917 263.942993,169.469940 
	C264.294342,168.977112 264.645691,168.484283 265.343811,167.861679 
	C269.407562,164.672119 273.692871,165.122574 278.004883,165.738022 
	C284.762329,166.656570 288.705566,171.824280 293.707245,176.416870 
	C294.659729,177.404282 295.269684,177.885727 295.879669,178.367188 
	C296.039978,177.969391 296.200256,177.571594 296.360535,177.173782 
	C295.477844,176.995987 294.595184,176.818192 293.712494,176.640411 
	C296.658905,175.825912 300.018188,173.712708 302.458923,174.488724 
	C306.542938,175.787170 309.339935,179.455612 309.637054,184.583954 
	C303.093903,187.654968 302.154022,190.083298 305.858276,194.399811 
	C305.549835,195.910797 305.169342,197.050064 304.424500,198.142700 
	C299.504852,199.426193 294.916595,200.659409 290.427521,202.184433 
	C289.702911,202.430573 289.419403,203.975021 288.632568,204.878922 
	C286.079712,202.559494 283.826294,200.280457 281.436401,197.652618 
	C279.048248,194.668442 276.796570,192.033081 274.612885,189.477325 
	C269.942017,192.388077 266.241699,194.990875 262.269653,197.076004 
	C259.049500,198.766434 255.502747,199.834717 251.705460,201.098694 
	C244.814377,200.289062 240.404205,196.555923 237.366547,190.945496 
	C237.089996,187.198135 236.427444,183.696121 236.125244,180.163284 
	C235.877762,177.270142 234.909790,176.297943 231.671890,178.002258 
	C233.033752,182.351715 234.373383,186.630173 235.489868,190.979462 
	C234.937210,191.237808 234.841644,191.508057 234.999603,191.892899 
	C235.019165,191.924759 234.958893,191.901428 234.634628,191.914154 
	C233.216568,192.587906 232.122772,193.248932 231.014008,193.949310 
	C230.999023,193.988647 231.059692,193.930313 231.011108,193.685196 
	C230.790176,193.069977 230.512146,192.954254 230.128418,193.092926 
	C227.209061,190.753860 222.542007,190.246292 221.965622,184.716034 
	C221.519440,179.915909 221.147232,175.774078 220.775040,171.632233 
	C221.167618,171.612961 221.560196,171.593689 221.952774,171.574417 
	C222.927979,172.854889 223.903183,174.135345 224.878387,175.415817 
	C225.353348,175.085938 225.828308,174.756073 226.303268,174.426208 
	C225.147919,172.697937 223.992554,170.969681 222.837204,169.241409 
	C223.680511,167.192184 224.523834,165.142960 225.940750,163.032516 
	C227.311798,162.550812 228.109253,162.130341 229.230164,161.643677 
	C229.909760,160.803925 230.265884,160.030350 230.776993,158.920151 
	C229.373062,158.920151 228.432861,158.920151 227.492661,158.920151 
M238.844131,174.062347 
	C237.536652,173.593994 236.229187,173.125626 233.598907,172.183411 
	C237.407104,176.575134 241.274658,176.332230 244.901505,175.911728 
	C248.679703,175.473679 252.378662,174.352112 256.112244,173.529404 
	C253.941681,173.013855 251.823090,173.236969 249.701324,173.424072 
	C246.326263,173.721695 242.949066,173.995285 238.844131,174.062347 
z"/>
<path fill="#0E0A15" opacity="1.000000" stroke="none" 
	d="
M313.027618,264.908325 
	C312.521027,271.220856 309.104614,275.863983 303.804962,280.024414 
	C302.191223,280.109039 301.249664,279.981537 300.317810,279.589630 
	C300.249878,279.165955 300.172180,279.006714 300.072693,278.628845 
	C299.868042,278.146484 299.616486,278.024536 299.084717,277.759460 
	C294.985565,272.187103 291.098022,266.899597 287.234253,261.271820 
	C285.956604,258.916290 284.655182,256.901093 283.217255,254.581772 
	C282.143463,253.493317 281.206177,252.708954 280.181763,251.576233 
	C278.197205,247.929489 276.399628,244.567337 274.353699,241.363770 
	C273.522400,240.062042 272.151031,239.105209 271.083435,237.630890 
	C269.767395,234.893677 268.393280,232.517075 266.386230,229.045685 
	C262.843506,234.581818 259.868774,239.230362 256.595886,244.036377 
	C254.116730,247.300888 252.054077,250.500000 249.725449,253.492142 
	C246.649200,257.444885 240.052704,257.718018 235.349823,254.273941 
	C231.210098,251.242264 230.940369,247.728714 234.460007,242.726974 
	C235.791031,240.835449 237.116745,238.940201 238.694702,236.895279 
	C239.449493,235.704437 239.954468,234.664978 240.502136,233.564102 
	C240.544830,233.502670 240.609146,233.367554 240.808472,233.259949 
	C241.241592,232.927734 241.352829,232.653381 241.316528,232.284943 
	C241.291534,232.240616 241.391174,232.261307 241.670837,232.091675 
	C246.396255,225.683289 250.818497,219.427597 255.293060,213.209549 
	C262.714233,202.896805 272.346649,203.314514 279.138977,213.910599 
	C282.764343,219.566162 287.044159,224.802200 290.923096,230.518036 
	C292.618439,233.566879 294.419281,236.325256 296.273987,239.379303 
	C297.136902,240.821106 297.945892,241.967239 298.850250,243.446121 
	C300.606689,246.219711 302.267792,248.660538 304.002747,251.438095 
	C306.690765,255.312256 309.304901,258.849701 311.967560,262.661255 
	C312.353241,263.593048 312.690430,264.250702 313.027618,264.908325 
z"/>
<path fill="#AF68BA" opacity="1.000000" stroke="none" 
	d="
M185.988693,330.113770 
	C185.988693,330.113770 186.336792,329.919891 187.017776,330.012695 
	C193.212677,330.060822 198.726608,330.016113 204.240524,329.971405 
	C204.240524,329.971405 204.679230,329.907867 204.820221,330.237061 
	C204.961197,330.566254 204.995819,331.037384 205.007858,331.432251 
	C205.327499,333.903900 205.635101,335.980713 205.641388,337.916687 
	C203.872864,336.158264 202.405655,334.540680 200.814270,332.614349 
	C199.794754,332.567902 198.899429,332.830231 198.047714,333.035645 
	C198.091324,332.978760 198.214233,333.052612 197.858063,333.275665 
	C197.388229,337.300171 197.086502,341.107666 197.208649,344.901550 
	C197.360275,349.611023 197.862640,354.309204 198.213501,359.012268 
	C196.058762,359.441650 193.680664,360.610046 191.825256,360.049194 
	C190.516373,359.653564 189.277832,356.966644 189.126083,355.206268 
	C188.745590,350.792786 189.000412,346.324493 189.000412,342.298004 
	C186.371582,342.165985 183.651505,342.603394 181.517792,341.682373 
	C180.434860,341.214935 180.408905,338.298706 180.237427,335.914673 
	C180.699890,334.531860 180.830048,333.723846 180.960205,332.915863 
	C180.960205,332.915863 180.985214,332.983368 181.253159,332.964325 
	C181.672714,332.601379 181.824341,332.257446 181.975967,331.913544 
	C181.975967,331.913544 181.980713,331.986511 182.268829,332.043396 
	C183.044312,331.707520 183.531677,331.314819 184.019043,330.922119 
	C184.019058,330.922119 183.991241,331.000946 184.253601,331.015503 
	C185.006882,330.724640 185.497787,330.419220 185.988693,330.113770 
M191.965912,348.338501 
	C192.459137,351.555817 192.952362,354.773132 193.445587,357.990479 
	C194.006378,357.913116 194.567184,357.835754 195.127975,357.758392 
	C194.554291,350.254456 195.881958,342.635956 194.402832,335.186584 
	C193.710205,335.170380 193.017593,335.154175 192.324982,335.137970 
	C192.205780,339.220703 192.086578,343.303436 191.965912,348.338501 
z"/>
<path fill="#724FB4" opacity="1.000000" stroke="none" 
	d="
M207.892288,261.100525 
	C199.912659,269.551788 191.630997,277.748901 184.159134,286.627472 
	C182.215530,288.937012 181.516693,293.833710 182.549866,296.716431 
	C183.822189,300.266449 188.198151,300.414856 192.007202,299.754272 
	C193.724869,299.456390 195.537109,299.703796 197.306427,299.703796 
	C197.353653,300.186890 197.400879,300.669983 197.448105,301.153107 
	C194.842270,301.935760 192.265015,302.836731 189.624222,303.474701 
	C185.150864,304.555359 180.402069,304.290558 178.137115,300.056458 
	C176.126053,296.296936 177.012115,292.175262 179.537018,287.960938 
	C186.648087,276.091736 195.445084,265.737640 205.827255,256.374573 
	C206.842529,258.064819 207.367401,259.582672 207.892288,261.100525 
z"/>
<path fill="#724FB4" opacity="1.000000" stroke="none" 
	d="
M305.786224,194.028076 
	C302.154022,190.083298 303.093903,187.654968 309.622742,184.963104 
	C316.316681,183.429916 322.610046,181.716919 329.007690,180.602631 
	C333.066772,179.895691 337.453888,179.242477 341.386139,180.054886 
	C347.692108,181.357681 349.360687,185.787415 346.608032,192.622696 
	C344.986450,193.569305 343.788116,194.088562 343.136292,194.371002 
	C342.358704,191.941818 341.730072,189.977951 341.022461,187.647583 
	C339.105957,186.208069 336.892273,183.855377 335.491119,184.267197 
	C325.496552,187.204620 315.667755,190.706055 305.786224,194.028076 
z"/>
<path fill="#AF68BA" opacity="1.000000" stroke="none" 
	d="
M163.230637,350.007935 
	C161.498108,353.028412 159.897522,356.134857 158.000183,359.047974 
	C155.544006,362.819092 151.704620,363.675171 147.673279,362.647095 
	C146.432419,362.330719 145.652039,360.208588 144.490540,358.690765 
	C148.418427,356.617706 153.799911,363.800201 155.286133,356.060608 
	C155.588516,354.485931 154.238724,352.593933 153.521744,350.465851 
	C154.483383,350.292358 155.970322,350.024078 157.570236,349.735443 
	C158.390625,347.205109 159.226791,344.626129 160.177246,341.694672 
	C158.315109,342.159882 156.641296,343.112244 155.271561,342.786377 
	C153.520050,342.369690 151.724487,341.171326 150.542694,339.797974 
	C150.063034,339.240601 150.993332,337.263000 151.551544,336.056274 
	C153.641800,331.537720 157.127731,329.387939 162.595520,330.499817 
	C162.733093,331.584412 162.462341,332.302460 161.985809,332.680603 
	C159.354004,332.904358 156.898148,333.373047 154.528992,334.117645 
	C154.093216,334.254608 153.647919,335.643097 153.858307,336.213806 
	C154.095062,336.856018 155.002350,337.447998 155.736420,337.669830 
	C157.381073,338.166779 159.099136,338.420807 160.977570,338.813507 
	C161.243683,337.755859 161.718582,335.868347 162.519104,334.059265 
	C164.266296,337.399475 165.829056,340.609924 167.042938,343.947235 
	C167.560089,345.369080 167.347900,347.056213 167.325958,348.371216 
	C165.553391,348.672333 163.922012,349.224976 162.290619,349.777618 
	C162.603958,349.854401 162.917297,349.931183 163.230637,350.007935 
z"/>
<path fill="#AF68BA" opacity="1.000000" stroke="none" 
	d="
M242.936264,352.030518 
	C242.036789,351.573853 241.137329,351.117188 240.393372,350.328003 
	C241.246140,349.838989 241.943405,349.682556 243.470474,349.339935 
	C240.786850,348.961700 239.039322,348.715424 236.172760,348.311401 
	C237.759308,349.257263 238.453049,349.670868 239.146759,350.084442 
	C237.422546,352.629517 235.562531,355.094543 234.004547,357.737610 
	C231.380692,362.188843 229.051468,363.266785 225.900421,361.708649 
	C228.008377,359.375061 230.239731,356.904907 232.692795,354.189270 
	C230.597137,353.069153 229.263260,352.356201 227.994003,351.677795 
	C228.159180,351.011597 228.197830,350.458679 228.314499,350.441711 
	C237.574249,349.093872 234.838470,340.265717 237.774612,335.004761 
	C237.954178,334.683105 235.797592,332.350525 235.383347,332.523438 
	C233.271484,333.405090 231.375351,334.803467 228.449890,336.609985 
	C231.666763,337.917114 233.316177,338.587311 234.965591,339.257538 
	C235.040680,339.800293 235.115768,340.343048 235.190872,340.885803 
	C233.292389,341.566406 231.389481,342.755005 229.497070,342.738556 
	C228.347229,342.728546 226.188293,340.768799 226.268539,339.839020 
	C226.492401,337.245117 226.891541,333.608948 228.612381,332.450653 
	C231.160843,330.735260 234.907715,330.800293 238.572174,330.598755 
	C238.992920,336.294556 239.485046,341.235168 242.832047,345.718628 
	C243.853058,347.086304 242.955292,349.886414 242.936264,352.030518 
z"/>
<path fill="#AF68BA" opacity="1.000000" stroke="none" 
	d="
M207.941437,261.463898 
	C207.367401,259.582672 206.842529,258.064819 206.133682,256.239929 
	C205.869812,247.471390 205.765747,239.009979 205.733017,230.548309 
	C205.727356,229.082947 206.023743,227.616440 206.567993,226.402069 
	C206.706818,229.061142 206.132950,231.490814 206.295624,233.870132 
	C206.481018,236.582275 207.323135,239.249496 207.992950,242.101883 
	C208.256165,242.501358 208.466217,242.650879 208.667694,243.100098 
	C210.024765,249.855850 211.115082,256.335205 213.102219,262.526733 
	C213.625244,264.156433 216.922119,264.895844 219.103516,266.342285 
	C220.601974,268.805634 221.942093,270.970734 223.150940,273.479553 
	C221.083679,275.397430 221.181732,276.807892 222.978210,278.586182 
	C224.533035,280.125275 225.671280,282.085175 226.685669,283.932678 
	C225.912994,284.400818 225.448334,284.795319 224.983673,285.189819 
	C217.117554,279.003784 212.321838,270.584442 207.941437,261.463898 
z"/>
<path fill="#A151CB" opacity="1.000000" stroke="none" 
	d="
M358.820435,341.982910 
	C360.725403,345.320892 362.630371,348.658905 364.653931,352.204620 
	C360.809357,354.066681 363.541718,356.573853 366.085022,358.979675 
	C359.661865,362.858032 356.974579,361.674225 354.000305,353.068939 
	C353.348267,350.531128 352.709717,348.776215 352.011902,346.627228 
	C351.671295,344.443665 351.418610,342.648071 351.040741,340.879242 
	C351.016876,340.767517 350.017120,340.864288 349.287354,340.494385 
	C348.712616,339.743164 348.321838,339.361603 347.932556,338.605042 
	C347.949280,337.480011 347.964569,336.729980 348.234619,335.675659 
	C348.504883,333.775909 348.520386,332.180420 348.942383,330.727112 
	C351.384766,331.311646 353.420715,331.754059 355.456635,332.196442 
	C355.456635,332.196442 355.672852,332.333771 355.519775,332.818970 
	C356.517914,336.197052 357.669159,339.089996 358.820435,341.982910 
z"/>
<path fill="#724FB4" opacity="1.000000" stroke="none" 
	d="
M300.308075,279.854065 
	C301.249664,279.981537 302.191223,280.109039 303.479858,280.146851 
	C296.227264,291.293579 284.438019,295.100647 272.096466,297.825806 
	C262.871368,299.862793 253.764130,299.034027 244.888718,295.938507 
	C242.612045,295.144470 240.531937,293.786865 238.592560,292.345337 
	C241.860641,292.638489 244.897705,293.274506 248.343475,293.962677 
	C252.802399,294.653870 256.852570,295.292847 261.339172,295.972168 
	C264.704193,295.668884 267.768616,295.757416 270.532196,294.888733 
	C275.762238,293.244720 280.819550,291.051117 286.002502,289.090332 
	C286.056427,289.094788 286.094147,288.993378 286.437622,289.036163 
	C288.176208,288.078339 289.571320,287.077698 291.006226,286.069855 
	C291.046082,286.062622 291.081696,285.989899 291.397797,285.983612 
	C292.467834,285.337952 293.221741,284.698547 294.004089,284.051605 
	C294.032532,284.044067 294.063751,283.994202 294.357056,283.980042 
	C295.124847,283.660614 295.599396,283.355347 296.350647,282.872375 
	C297.854279,281.747803 299.081177,280.800934 300.308075,279.854065 
z"/>
<path fill="#A151CB" opacity="1.000000" stroke="none" 
	d="
M330.080292,342.037018 
	C327.443390,344.461548 327.214539,346.544281 329.753876,349.620667 
	C332.459991,352.899109 334.143646,357.021576 336.663055,361.215576 
	C337.331543,362.855377 337.610657,364.055145 337.895447,365.279358 
	C336.008728,365.882050 334.510834,366.360535 333.012909,366.838989 
	C330.625671,364.080780 327.935608,361.523407 325.936127,358.508087 
	C323.923126,355.472412 322.596680,351.981476 320.890533,348.098114 
	C320.811676,347.506195 320.828491,347.057465 321.105560,346.874695 
	C321.531372,346.068512 321.680084,345.445099 321.867004,344.920349 
	C321.905212,345.019043 321.807190,344.830017 322.158936,344.843933 
	C322.961273,344.173676 323.411835,343.489532 323.896545,342.421570 
	C324.125732,339.536224 324.320801,337.034668 324.753052,334.217560 
	C328.259583,331.942841 328.363342,334.794403 328.929199,336.616394 
	C329.474731,338.373016 329.709198,340.226227 330.080292,342.037018 
z"/>
<path fill="#A151CB" opacity="1.000000" stroke="none" 
	d="
M167.467148,348.622772 
	C167.347900,347.056213 167.560089,345.369080 167.042938,343.947235 
	C165.829056,340.609924 164.266296,337.399475 162.453888,333.819458 
	C162.063049,333.501190 162.191589,333.020477 162.191589,333.020477 
	C162.462341,332.302460 162.733093,331.584412 163.013245,330.564880 
	C163.750702,330.196289 164.478729,330.129211 165.635757,330.450287 
	C168.069031,333.889221 170.073303,336.940002 172.077576,339.990784 
	C172.077576,339.990784 172.009415,339.994781 172.084961,340.177673 
	C172.304138,340.638916 172.515045,340.850067 172.793228,340.994049 
	C174.649963,347.204681 176.506683,353.415283 178.379532,359.679840 
	C173.998123,362.184601 170.976425,361.093506 168.991348,356.461060 
	C168.100983,354.383301 166.499207,352.610443 165.330841,350.328247 
	C166.116684,349.512451 166.791916,349.067596 167.467148,348.622772 
z"/>
<path fill="#AF68BA" opacity="1.000000" stroke="none" 
	d="
M284.864380,337.766083 
	C285.775452,339.711243 287.230347,342.091705 284.034790,342.935791 
	C282.141205,343.435974 278.354279,343.046387 278.079926,342.197205 
	C277.320007,339.844757 276.911591,335.878571 278.263031,334.665375 
	C280.852448,332.340881 284.700439,330.385590 288.122955,330.214691 
	C298.581177,329.692535 309.085327,330.090210 320.020081,330.626526 
	C320.326843,331.762726 320.185120,332.402344 319.728180,333.289795 
	C319.248566,336.348694 319.084167,339.159790 318.651245,341.680298 
	C318.228455,339.434021 318.164886,337.465912 317.900726,335.525146 
	C317.369049,331.619537 315.650177,329.723328 311.289551,332.166687 
	C307.652130,332.423706 304.824402,333.216248 304.239838,338.115082 
	C306.122131,337.552032 307.475342,337.147217 308.978210,336.697662 
	C309.062958,338.006958 309.157349,339.465088 309.251770,340.923248 
	C307.268860,341.512573 305.285950,342.101868 303.303040,342.691193 
	C302.642548,340.188293 301.982056,337.685364 301.852814,334.835754 
	C302.209259,334.002991 302.034454,333.516907 301.859650,333.030823 
	C301.859650,333.030823 301.961853,332.966614 301.709961,332.755249 
	C299.925568,332.342743 298.393066,332.141632 296.571228,331.902527 
	C296.361542,334.223816 296.192444,336.095703 295.740601,337.709961 
	C294.460754,335.325867 293.463684,333.199463 292.466583,331.073029 
	C291.367157,332.383728 290.267731,333.694427 289.073456,334.659698 
	C288.776886,331.962738 287.866394,331.331390 285.976379,333.077179 
	C285.976379,333.077179 286.052765,332.993378 285.757751,332.983215 
	C284.976379,333.344818 284.490021,333.716583 284.003662,334.088348 
	C284.003662,334.088348 284.012573,334.009583 283.791138,334.043030 
	C283.428192,334.357483 283.286682,334.638550 283.145172,334.919586 
	C282.988312,334.984741 282.831451,335.049866 282.079956,335.090424 
	C281.073303,336.088806 280.661224,337.111755 280.048187,338.633667 
	C282.355530,338.218018 283.609955,337.992065 284.864380,337.766083 
z"/>
<path fill="#A151CB" opacity="1.000000" stroke="none" 
	d="
M311.646454,332.132233 
	C315.650177,329.723328 317.369049,331.619537 317.900726,335.525146 
	C318.164886,337.465912 318.228455,339.434021 318.715027,342.147552 
	C319.074371,347.939026 319.101471,352.972717 319.128540,358.006378 
	C317.285156,361.872528 315.045502,362.119965 311.932129,357.940674 
	C311.830139,348.764771 311.738281,340.448517 311.646454,332.132233 
z"/>
<path fill="#A151CB" opacity="1.000000" stroke="none" 
	d="
M243.076920,352.361755 
	C242.955292,349.886414 243.853058,347.086304 242.832047,345.718628 
	C239.485046,341.235168 238.992920,336.294556 239.006622,330.669739 
	C239.457169,330.191040 239.901062,330.132782 240.878876,330.343292 
	C241.972855,330.722595 242.532913,330.833099 243.092987,330.943604 
	C243.092987,330.943604 243.024994,330.977905 243.128571,331.181396 
	C243.511246,331.585571 243.790344,331.786285 244.069427,331.987000 
	C244.069427,331.987000 244.005127,331.995392 244.012115,332.327759 
	C244.944977,334.101196 245.870819,335.542206 246.796661,336.983215 
	C247.472931,339.487488 248.073975,342.015076 248.841904,344.490906 
	C250.225327,348.951050 251.708710,353.380157 253.121628,357.733856 
	C248.417542,361.172119 246.931534,360.789490 245.036163,356.030670 
	C244.570709,354.862061 243.831131,353.802643 243.076920,352.361755 
z"/>
<path fill="#DD4CBE" opacity="1.000000" stroke="none" 
	d="
M207.879837,241.936249 
	C207.323135,239.249496 206.481018,236.582275 206.295624,233.870132 
	C206.132950,231.490814 206.706818,229.061142 206.941681,226.191071 
	C209.714172,213.791977 216.748932,204.668915 225.960342,196.987244 
	C227.080856,196.052826 228.201569,195.118668 229.919983,194.092880 
	C230.698410,193.977692 230.879044,193.954010 231.059692,193.930313 
	C231.059692,193.930313 230.999023,193.988647 231.150635,194.230896 
	C231.441879,195.349777 232.014694,196.594666 231.640686,197.034622 
	C230.474869,198.405930 229.013519,199.556870 227.555527,200.644058 
	C214.320007,210.513611 209.199081,224.333679 208.146088,240.473785 
	C208.006592,241.152161 207.943222,241.544205 207.879837,241.936249 
z"/>
<path fill="#A151CB" opacity="1.000000" stroke="none" 
	d="
M205.942703,338.057526 
	C205.635101,335.980713 205.327499,333.903900 205.356583,331.410583 
	C206.158417,330.985413 206.623566,330.976776 207.088715,330.968140 
	C207.088715,330.968140 207.017029,330.984924 207.068665,331.181030 
	C207.249863,331.714691 207.495132,331.893982 207.856140,331.915039 
	C214.236618,335.905518 214.723877,342.318146 213.826904,348.630676 
	C213.140427,353.461823 209.551559,356.677795 204.234406,357.702972 
	C203.842896,357.436340 203.851074,357.025085 203.926315,356.619629 
	C204.648605,350.161957 205.295654,344.109741 205.942703,338.057526 
z"/>
<path fill="#AF68BA" opacity="1.000000" stroke="none" 
	d="
M338.870117,205.009033 
	C333.061066,211.408417 327.185364,217.749512 321.497406,224.254745 
	C320.312988,225.609375 319.823364,227.571503 318.655640,229.608612 
	C315.510834,227.700256 314.447479,230.192657 312.844391,231.884598 
	C312.606018,231.915619 312.127808,231.965012 311.841583,231.755585 
	C310.689941,231.191345 309.824524,230.836517 309.016022,230.167618 
	C311.398438,227.163422 313.723907,224.473282 316.378723,221.731567 
	C318.870087,219.550125 321.083557,217.469635 323.182648,215.279480 
	C326.808563,211.496231 330.363434,207.644882 333.982544,204.099152 
	C335.634674,204.587143 337.252380,204.798096 338.870117,205.009033 
z"/>
<path fill="#A151CB" opacity="1.000000" stroke="none" 
	d="
M289.168335,335.005157 
	C290.267731,333.694427 291.367157,332.383728 292.466583,331.073029 
	C293.463684,333.199463 294.460754,335.325867 295.791016,338.177612 
	C296.079437,343.609009 296.034668,348.315125 295.733521,353.229736 
	C295.645630,354.620331 295.814148,355.802429 296.033813,357.324280 
	C296.076141,358.121613 296.067352,358.579224 296.058533,359.036804 
	C296.058533,359.036804 296.038330,359.486572 295.772949,359.808594 
	C295.262939,360.316681 295.083130,360.552307 294.968170,360.837463 
	C293.450409,360.831543 291.932648,360.825623 290.214172,360.032043 
	C290.008789,357.111145 290.120941,354.969818 289.975037,352.846252 
	C289.678802,348.535858 289.243011,344.235107 288.888336,339.520569 
	C288.997375,337.742249 289.082855,336.373688 289.168335,335.005157 
z"/>
<path fill="#AF68BA" opacity="1.000000" stroke="none" 
	d="
M333.356812,367.025818 
	C334.510834,366.360535 336.008728,365.882050 337.895447,365.279358 
	C337.610657,364.055145 337.331543,362.855377 337.001648,361.282043 
	C338.870697,358.775177 340.790497,356.641815 343.000977,354.185516 
	C340.658722,353.093994 339.414246,352.514038 337.806030,351.764587 
	C340.305908,348.837891 346.007721,349.439392 345.968201,343.655273 
	C346.669281,341.785431 346.817108,340.372955 347.205994,338.988220 
	C347.447083,339.015991 347.931091,338.980042 347.931091,338.980042 
	C348.321838,339.361603 348.712616,339.743164 349.287079,340.835754 
	C348.937927,344.223694 348.405060,346.900604 347.872192,349.577515 
	C348.208069,349.815277 348.543976,350.053040 348.879852,350.290802 
	C349.943604,349.200958 351.007355,348.111145 352.071136,347.021332 
	C352.709717,348.776215 353.348267,350.531128 353.972107,352.699890 
	C349.254761,351.508392 346.677917,353.355865 344.891907,357.864685 
	C344.004608,360.104614 341.616089,361.749878 339.867065,363.708557 
	C340.095367,364.325439 340.469635,365.336700 340.843903,366.347961 
	C338.462830,366.636169 336.081757,366.924408 333.356812,367.025818 
z"/>
<path fill="#A151CB" opacity="1.000000" stroke="none" 
	d="
M273.029144,362.814178 
	C273.029144,362.814178 272.558899,362.981415 271.923920,362.928009 
	C270.858917,361.104309 270.290710,359.354401 270.025787,357.559753 
	C269.337189,352.895081 268.132202,348.647369 262.935425,347.054810 
	C262.935425,347.054810 262.997498,346.998596 262.976013,346.645447 
	C262.299622,345.014893 261.632233,343.743713 260.992249,342.458862 
	C259.364624,339.191193 259.214233,336.146057 261.869568,333.464111 
	C263.079712,335.525696 264.091675,337.249695 265.103638,338.973663 
	C265.103638,338.973663 265.019348,338.989868 265.047180,339.263245 
	C265.424042,340.014984 265.773010,340.493286 266.122009,340.971619 
	C266.122009,340.971619 266.026001,340.987610 266.141174,341.183075 
	C266.549316,341.569427 266.842285,341.760315 267.135254,341.951202 
	C267.135254,341.951202 267.027039,341.972382 267.142578,342.167603 
	C267.553223,342.559204 267.848358,342.755524 268.143494,342.951843 
	C268.143494,342.951843 268.027679,342.971649 268.140076,343.167175 
	C268.549805,343.559204 268.847107,343.755676 269.144440,343.952118 
	C269.144440,343.952118 269.027069,343.972656 269.139526,344.167419 
	C269.550171,344.558289 269.848328,344.754425 270.146484,344.950592 
	C270.146484,344.950592 270.040283,344.960083 270.041748,345.286469 
	C271.052551,346.731079 272.061920,347.849274 273.071259,348.967499 
	C273.071259,348.967499 273.003448,348.997009 273.018768,349.324646 
	C273.714935,350.423676 274.395813,351.195099 275.076660,351.966492 
	C275.076660,351.966492 275.006866,351.997711 275.012787,352.380859 
	C274.355530,356.114075 273.692322,359.464142 273.029144,362.814178 
z"/>
<path fill="#724FB4" opacity="1.000000" stroke="none" 
	d="
M313.082764,231.853577 
	C314.447479,230.192657 315.510834,227.700256 318.584656,229.985199 
	C319.960938,240.661301 320.350708,251.256744 315.904572,261.377075 
	C315.362671,262.610565 314.483246,263.695740 313.393921,264.878967 
	C312.690430,264.250702 312.353241,263.593048 312.019897,262.259521 
	C312.743927,258.923309 313.464142,256.263031 314.361511,253.225723 
	C314.987640,247.346512 315.655029,241.847733 315.740570,236.339905 
	C315.763550,234.858582 314.017029,233.349762 313.082764,231.853577 
z"/>
<path fill="#AF68BA" opacity="1.000000" stroke="none" 
	d="
M265.038757,168.040070 
	C265.125305,166.562119 265.211884,165.084167 265.277191,163.969162 
	C267.996735,162.482391 270.560242,161.080917 273.123749,159.679459 
	C273.045502,159.029663 272.967224,158.379868 272.888977,157.730072 
	C270.341553,157.464600 267.790955,157.225937 265.247772,156.924759 
	C263.385345,156.704208 261.532623,156.401642 259.370239,155.951508 
	C263.409027,155.515762 267.754669,155.103897 272.096252,155.142944 
	C273.002747,155.151077 274.548035,156.739700 274.678223,157.745087 
	C275.209351,161.847153 276.436188,162.290283 279.179321,159.180878 
	C279.509766,158.806335 280.761505,159.244598 282.012268,159.722443 
	C283.012970,160.458282 283.587708,160.777802 284.136902,161.214081 
	C284.111389,161.330811 284.163544,161.564072 284.163544,161.564056 
	C282.493042,161.922668 280.822571,162.281296 278.794037,162.716766 
	C278.682556,163.095108 278.385803,164.102295 278.046936,165.423767 
	C273.692871,165.122574 269.407562,164.672119 265.353149,167.873993 
	C265.015686,168.016052 265.038757,168.040070 265.038757,168.040070 
z"/>
<path fill="#AF68BA" opacity="1.000000" stroke="none" 
	d="
M265.067261,338.577087 
	C264.091675,337.249695 263.079712,335.525696 261.869568,333.464111 
	C259.214233,336.146057 259.364624,339.191193 260.992249,342.458862 
	C261.632233,343.743713 262.299622,345.014893 262.949127,346.676453 
	C261.602753,345.854004 259.531189,344.872040 259.076355,343.392944 
	C258.191498,340.515381 257.201630,336.967926 258.178345,334.441376 
	C258.965424,332.405365 262.433502,330.806641 264.987030,330.228851 
	C267.325470,329.699707 270.219299,330.365173 272.500824,331.353119 
	C273.719696,331.880951 274.389191,334.141266 274.820160,335.750000 
	C274.954407,336.251190 273.022003,337.912354 272.840607,337.795258 
	C271.456512,336.902008 270.200562,335.767487 269.057526,334.563049 
	C268.551300,334.029633 268.399139,333.160187 268.086273,332.443298 
	C267.606140,332.360046 267.126007,332.276825 266.645874,332.193573 
	C266.107544,334.189240 265.569214,336.184875 265.067261,338.577087 
z"/>
<path fill="#AF68BA" opacity="1.000000" stroke="none" 
	d="
M262.972076,347.412720 
	C268.132202,348.647369 269.337189,352.895081 270.025787,357.559753 
	C270.290710,359.354401 270.858917,361.104309 271.678650,362.974060 
	C266.868591,367.778839 257.955872,366.614716 256.174744,360.829529 
	C255.782043,359.554108 256.838837,357.832367 257.228180,356.316162 
	C258.496399,356.958069 259.875702,357.448273 261.006989,358.277100 
	C262.744934,359.550415 261.581085,364.793304 265.811676,362.417206 
	C269.286530,360.465515 268.587250,356.793060 267.069489,353.723328 
	C266.015228,351.591095 264.382812,349.744751 262.972076,347.412720 
z"/>
<path fill="#724FB4" opacity="1.000000" stroke="none" 
	d="
M224.948349,285.542358 
	C225.448334,284.795319 225.912994,284.400818 226.919601,284.175995 
	C228.271286,285.604797 229.081024,286.863861 229.912811,288.300140 
	C229.934830,288.477325 229.974228,288.832245 229.974228,288.832245 
	C221.857346,292.724823 214.140320,297.768494 204.896286,298.416077 
	C204.633423,297.822540 204.370560,297.229004 204.107697,296.635437 
	C209.499847,294.067383 214.917557,291.550903 220.268860,288.900360 
	C221.910400,288.087280 223.370071,286.907013 224.948349,285.542358 
z"/>
<path fill="#A151CB" opacity="1.000000" stroke="none" 
	d="
M339.011505,204.689468 
	C337.252380,204.798096 335.634674,204.587143 334.003754,203.897552 
	C333.990570,203.418930 334.093445,203.026489 334.417603,202.966583 
	C335.116852,202.211716 335.491913,201.516754 335.885101,200.866516 
	C335.903229,200.911255 335.806763,200.913544 336.072815,200.819580 
	C336.542786,200.419876 336.746674,200.114151 337.112518,199.493820 
	C338.550110,195.457489 339.825745,191.735794 341.101410,188.014084 
	C341.730072,189.977951 342.358704,191.941818 343.136292,194.371002 
	C343.788116,194.088562 344.986450,193.569305 346.529358,193.023743 
	C344.300262,196.788254 341.726593,200.579071 339.011505,204.689468 
z"/>
<path fill="#AF68BA" opacity="1.000000" stroke="none" 
	d="
M344.999420,341.925781 
	C341.527893,344.194885 338.416199,343.122864 336.623993,339.979553 
	C334.420074,336.114166 337.719513,333.533875 340.231567,331.427460 
	C341.508606,330.356628 343.827911,330.528717 345.923401,330.602356 
	C345.119141,331.714874 344.067474,332.363953 342.753967,333.072815 
	C342.337036,333.431122 342.181885,333.729645 341.688049,334.039429 
	C340.715759,335.090393 340.082153,336.130035 339.181824,337.607239 
	C341.798248,337.785522 343.398560,337.894562 345.024719,338.396667 
	C345.033539,339.835114 345.016479,340.880463 344.999420,341.925781 
z"/>
<path fill="#F6F5F5" opacity="1.000000" stroke="none" 
	d="
M311.289551,332.166687 
	C311.738281,340.448517 311.830139,348.764771 311.915619,357.548767 
	C311.616089,353.998657 311.378174,349.975677 311.003265,345.965515 
	C310.846985,344.293823 310.398865,342.649445 309.667603,340.957947 
	C309.157349,339.465088 309.062958,338.006958 308.978210,336.697662 
	C307.475342,337.147217 306.122131,337.552032 304.239838,338.115082 
	C304.824402,333.216248 307.652130,332.423706 311.289551,332.166687 
z"/>
<path fill="#A151CB" opacity="1.000000" stroke="none" 
	d="
M230.312973,288.973022 
	C229.974228,288.832245 229.934830,288.477325 230.302551,288.211029 
	C234.668518,286.809387 245.223419,290.456635 247.934753,293.910492 
	C244.897705,293.274506 241.860641,292.638489 238.431488,292.039490 
	C235.576843,291.088959 233.114273,290.101379 230.312973,288.973022 
z"/>
<path fill="#724FB4" opacity="1.000000" stroke="none" 
	d="
M222.445374,169.203888 
	C223.992554,170.969681 225.147919,172.697937 226.303268,174.426208 
	C225.828308,174.756073 225.353348,175.085938 224.878387,175.415817 
	C223.903183,174.135345 222.927979,172.854889 221.952774,171.574417 
	C221.560196,171.593689 221.167618,171.612961 220.775040,171.632233 
	C221.147232,175.774078 221.519440,179.915909 221.692657,184.434616 
	C220.657242,180.717712 219.587936,176.648483 219.152206,172.512497 
	C219.046600,171.510147 221.030487,170.287643 222.445374,169.203888 
z"/>
<path fill="#F6F5F5" opacity="1.000000" stroke="none" 
	d="
M289.960205,156.064026 
	C289.947632,155.231277 289.935089,154.398529 290.208435,153.064194 
	C290.591949,152.118103 290.689575,151.673599 290.787201,151.229095 
	C291.171509,149.319870 291.555817,147.410645 292.253510,145.231567 
	C292.669220,144.343048 292.771576,143.724350 292.873962,143.105667 
	C293.261139,141.316040 293.648285,139.526398 294.380066,137.616821 
	C294.815277,139.210968 294.905884,140.925064 294.996460,142.639130 
	C294.702667,143.250870 294.408905,143.862610 293.903259,144.882629 
	C293.691376,145.290924 293.594635,145.709427 293.408875,145.877045 
	C293.055023,146.396393 293.119537,146.698166 293.416748,146.949982 
	C293.376892,147.421997 293.337036,147.894012 292.874054,148.767334 
	C292.235748,150.336838 292.020630,151.505035 291.805481,152.673233 
	C292.079102,152.777725 292.352722,152.882217 292.626343,152.986694 
	C292.991455,152.344025 293.356567,151.701355 293.721680,151.058685 
	C293.365814,153.620316 293.009949,156.181961 292.249817,158.433197 
	C291.968201,156.843536 292.090851,155.564285 292.299164,153.391876 
	C291.115631,154.744019 290.537933,155.404022 289.960205,156.064026 
z"/>
<path fill="#AF68BA" opacity="1.000000" stroke="none" 
	d="
M330.403870,341.845398 
	C329.709198,340.226227 329.474731,338.373016 328.929199,336.616394 
	C328.363342,334.794403 328.259583,331.942841 324.576385,334.008667 
	C323.769867,333.746979 323.377228,333.378632 322.882080,332.727173 
	C322.353821,331.775757 321.928101,331.107483 321.502380,330.439209 
	C329.308807,329.902374 332.838623,334.193481 330.403870,341.845398 
z"/>
<path fill="#AF68BA" opacity="1.000000" stroke="none" 
	d="
M288.864777,339.930359 
	C289.243011,344.235107 289.678802,348.535858 289.975037,352.846252 
	C290.120941,354.969818 290.008789,357.111145 289.989136,359.727509 
	C289.298737,357.158875 288.341187,354.135193 288.044434,351.047974 
	C287.714233,347.612457 287.985687,344.119110 288.241089,340.239197 
	C288.487000,339.827423 288.864777,339.930359 288.864777,339.930359 
z"/>
<path fill="#F6F5F5" opacity="1.000000" stroke="none" 
	d="
M203.851074,357.025085 
	C203.851074,357.025085 203.842896,357.436340 203.857132,357.641571 
	C202.231537,358.231842 200.591690,358.616913 198.582672,359.007111 
	C197.862640,354.309204 197.360275,349.611023 197.208649,344.901550 
	C197.086502,341.107666 197.388229,337.300171 197.738342,333.727722 
	C197.974808,341.580261 197.974808,349.203766 197.974808,357.025085 
	C200.224594,357.025085 202.037827,357.025085 203.851074,357.025085 
z"/>
<path fill="#F6F5F5" opacity="1.000000" stroke="none" 
	d="
M295.989899,353.021240 
	C296.034668,348.315125 296.079437,343.609009 296.073761,338.435242 
	C296.192444,336.095703 296.361542,334.223816 296.571228,331.902527 
	C298.393066,332.141632 299.925568,332.342743 301.744904,332.804474 
	C300.548279,333.065063 299.064819,333.065063 296.800293,333.065063 
	C296.800293,341.561279 296.800293,350.075714 296.429443,358.813477 
	C296.067352,358.579224 296.076141,358.121613 296.113708,356.932678 
	C296.091583,355.141266 296.040741,354.081268 295.989899,353.021240 
z"/>
<path fill="#724FB4" opacity="1.000000" stroke="none" 
	d="
M289.617004,156.152679 
	C290.537933,155.404022 291.115631,154.744019 292.299164,153.391876 
	C292.090851,155.564285 291.968201,156.843536 291.863220,158.523254 
	C291.392242,164.353592 287.221893,160.667542 284.563843,161.640656 
	C284.163544,161.564072 284.111389,161.330811 284.378723,161.175156 
	C285.135040,160.530457 285.624023,160.041412 286.113007,159.552368 
	C287.166626,158.448685 288.220215,157.345001 289.617004,156.152679 
M290.026459,159.383240 
	C289.525085,159.379105 289.023682,159.374969 288.522308,159.370834 
	C288.630920,159.757736 288.739532,160.144653 288.848145,160.531586 
	C289.207581,160.368301 289.567017,160.205032 290.026459,159.383240 
z"/>
<path fill="#F6F5F5" opacity="1.000000" stroke="none" 
	d="
M319.487152,357.799683 
	C319.101471,352.972717 319.074371,347.939026 318.983521,342.438110 
	C319.084167,339.159790 319.248566,336.348694 319.716187,333.278687 
	C320.019440,333.019775 320.042145,333.042480 320.007141,333.496063 
	C319.971191,336.446014 319.809967,338.958221 320.054535,341.430298 
	C320.142639,342.320740 321.206085,343.114685 321.787354,344.171387 
	C321.750244,344.390076 321.807190,344.830017 321.807190,344.830017 
	C321.807190,344.830017 321.905212,345.019043 321.554138,344.924072 
	C321.078186,345.571869 320.953339,346.314667 320.828491,347.057465 
	C320.828491,347.057465 320.811676,347.506195 320.812256,347.730164 
	C320.490479,351.167084 320.168121,354.380066 319.487152,357.799683 
z"/>
<path fill="#AF68BA" opacity="1.000000" stroke="none" 
	d="
M172.051453,339.590393 
	C170.073303,336.940002 168.069031,333.889221 166.000275,330.502136 
	C171.204636,330.988190 171.352264,335.266388 172.051453,339.590393 
z"/>
<path fill="#AF68BA" opacity="1.000000" stroke="none" 
	d="
M273.379089,362.755554 
	C273.692322,359.464142 274.355530,356.114075 275.027863,352.345764 
	C277.449036,355.863159 277.081177,359.461243 273.379089,362.755554 
z"/>
<path fill="#F6F5F5" opacity="1.000000" stroke="none" 
	d="
M203.995300,329.596497 
	C198.726608,330.016113 193.212677,330.060822 187.212479,330.054840 
	C192.400818,329.743317 198.075439,329.482452 203.995300,329.596497 
z"/>
<path fill="#F6F5F5" opacity="1.000000" stroke="none" 
	d="
M343.015808,333.013062 
	C344.067474,332.363953 345.119141,331.714874 346.321930,330.768005 
	C346.984711,330.445099 347.496399,330.419983 348.282013,330.448944 
	C348.555969,330.503021 348.535858,330.584961 348.535889,330.584961 
	C348.520386,332.180420 348.504883,333.775909 348.243408,335.684326 
	C347.997375,335.997284 348.014038,336.011749 348.044586,335.587524 
	C347.875427,330.941406 344.678253,333.737640 342.998230,332.997864 
	C343.003021,333.002777 343.015808,333.013062 343.015808,333.013062 
z"/>
<path fill="#AF68BA" opacity="1.000000" stroke="none" 
	d="
M358.866638,341.597229 
	C357.669159,339.089996 356.517914,336.197052 355.577576,332.933228 
	C356.829956,335.445435 357.871399,338.328522 358.866638,341.597229 
z"/>
<path fill="#724FB4" opacity="1.000000" stroke="none" 
	d="
M238.693329,144.077911 
	C237.095078,143.371902 235.657654,142.699127 234.220215,142.026337 
	C235.494171,141.002686 236.768127,139.979034 238.375687,139.044769 
	C238.709290,139.134155 239.170563,139.260971 239.012589,139.818176 
	C238.521774,140.664490 238.188934,140.953613 237.543274,141.157883 
	C236.872833,141.461304 236.515167,141.849548 236.157516,142.237808 
	C236.701843,142.394897 237.246155,142.551971 238.051361,142.810638 
	C238.515472,143.204758 238.718735,143.497269 238.921982,143.789795 
	C238.921982,143.789795 238.854141,144.111130 238.693329,144.077911 
z"/>
<path fill="#F6F5F5" opacity="1.000000" stroke="none" 
	d="
M271.006927,145.154556 
	C271.420166,144.327835 271.833405,143.501114 272.430054,142.307465 
	C273.516815,142.927155 274.633423,143.563858 276.512268,144.635193 
	C274.769806,145.326813 273.665314,145.765213 272.152069,145.959351 
	C271.743317,145.715103 271.332275,145.872787 271.332275,145.872787 
	C271.332275,145.872787 271.168518,145.838547 271.231262,145.598450 
	C271.294006,145.358353 271.006927,145.154556 271.006927,145.154556 
z"/>
<path fill="#F6F5F5" opacity="1.000000" stroke="none" 
	d="
M167.325958,348.371216 
	C166.791916,349.067596 166.116684,349.512451 165.147217,350.013489 
	C164.491684,350.036713 164.130386,350.003662 163.499847,349.989258 
	C162.917297,349.931183 162.603958,349.854401 162.290619,349.777618 
	C163.922012,349.224976 165.553391,348.672333 167.325958,348.371216 
z"/>
<path fill="#AF68BA" opacity="1.000000" stroke="none" 
	d="
M295.344849,142.628571 
	C294.905884,140.925064 294.815277,139.210968 294.468811,137.226379 
	C294.028625,136.619797 294.101440,136.353897 294.958374,136.175232 
	C295.687866,136.217987 295.890259,136.243698 296.092682,136.269424 
	C295.959534,138.385620 295.826385,140.501816 295.344849,142.628571 
z"/>
<path fill="#F6F5F5" opacity="1.000000" stroke="none" 
	d="
M301.881195,158.199448 
	C302.371857,157.659439 302.862488,157.119415 303.364838,156.566513 
	C305.808960,158.514771 305.808960,158.514771 303.387054,160.284271 
	C302.671478,159.321823 302.276337,158.760635 301.881195,158.199448 
z"/>
<path fill="#F6F5F5" opacity="1.000000" stroke="none" 
	d="
M284.716248,337.457825 
	C283.609955,337.992065 282.355530,338.218018 280.048187,338.633667 
	C280.661224,337.111755 281.073303,336.088806 281.825256,335.085693 
	C282.966125,335.786896 283.767120,336.468231 284.716248,337.457825 
z"/>
<path fill="#AF68BA" opacity="1.000000" stroke="none" 
	d="
M348.942352,330.727112 
	C348.535858,330.584961 348.555969,330.503021 348.544739,330.461273 
	C350.715179,330.814362 352.896851,331.209167 355.267578,331.900208 
	C353.420715,331.754059 351.384766,331.311646 348.942352,330.727112 
z"/>
<path fill="#F6F5F5" opacity="1.000000" stroke="none" 
	d="
M288.888336,339.520569 
	C288.864777,339.930359 288.487000,339.827423 288.303589,339.754730 
	C287.685364,337.444885 287.250580,335.207764 286.396088,333.023895 
	C287.866394,331.331390 288.776886,331.962738 289.073486,334.659698 
	C289.082855,336.373688 288.997375,337.742249 288.888336,339.520569 
z"/>
<path fill="#F6F5F5" opacity="1.000000" stroke="none" 
	d="
M345.296112,342.008789 
	C345.016479,340.880463 345.033539,339.835114 345.020996,338.400269 
	C344.991394,338.010773 344.983124,338.021484 345.269562,338.057709 
	C346.025299,338.381653 346.494629,338.669373 346.975677,338.970093 
	C346.987427,338.983093 346.964935,338.960480 346.964935,338.960480 
	C346.817108,340.372955 346.669281,341.785431 346.320801,343.468994 
	C345.944397,343.190643 345.768585,342.641235 345.296112,342.008789 
z"/>
<path fill="#9DD7F1" opacity="1.000000" stroke="none" 
	d="
M285.727966,159.494263 
	C285.624023,160.041412 285.135040,160.530457 284.404266,161.058411 
	C283.587708,160.777802 283.012970,160.458282 282.360718,159.896393 
	C283.303101,159.581406 284.323029,159.508774 285.727966,159.494263 
z"/>
<path fill="#AF68BA" opacity="1.000000" stroke="none" 
	d="
M246.860504,336.640472 
	C245.870819,335.542206 244.944977,334.101196 244.024231,332.297668 
	C244.994324,333.389374 245.959335,334.843567 246.860504,336.640472 
z"/>
<path fill="#F6F5F5" opacity="1.000000" stroke="none" 
	d="
M239.343353,350.062683 
	C238.453049,349.670868 237.759308,349.257263 236.172760,348.311401 
	C239.039322,348.715424 240.786850,348.961700 243.470474,349.339935 
	C241.943405,349.682556 241.246140,349.838989 240.237503,350.060822 
	C239.926147,350.126221 239.539917,350.040955 239.343353,350.062683 
z"/>
<path fill="#AF68BA" opacity="1.000000" stroke="none" 
	d="
M273.045593,348.627136 
	C272.061920,347.849274 271.052551,346.731079 270.064880,345.238434 
	C271.064331,346.004944 272.042114,347.145874 273.045593,348.627136 
z"/>
<path fill="#9DD7F1" opacity="1.000000" stroke="none" 
	d="
M228.906708,161.709869 
	C228.109253,162.130341 227.311798,162.550812 226.280823,162.861053 
	C226.348282,161.990555 226.649261,161.230301 227.367981,160.274918 
	C228.159393,160.623154 228.533051,161.166504 228.906708,161.709869 
z"/>
<path fill="#F6F5F5" opacity="1.000000" stroke="none" 
	d="
M321.339081,330.408142 
	C321.928101,331.107483 322.353821,331.775757 322.888275,332.723236 
	C322.996979,333.002441 323.006805,332.993134 322.636108,332.979431 
	C321.524353,332.991302 320.783234,333.016907 320.042145,333.042480 
	C320.042145,333.042480 320.019440,333.019775 320.031433,333.030884 
	C320.185120,332.402344 320.326843,331.762726 320.494202,330.782318 
	C320.734406,330.378418 320.953064,330.356934 321.339081,330.408142 
z"/>
<path fill="#AF68BA" opacity="1.000000" stroke="none" 
	d="
M293.822571,150.777283 
	C293.356567,151.701355 292.991455,152.344025 292.626343,152.986694 
	C292.352722,152.882217 292.079102,152.777725 291.805481,152.673233 
	C292.020630,151.505035 292.235748,150.336838 292.814545,149.117706 
	C293.426636,149.543152 293.675049,150.019516 293.822571,150.777283 
z"/>
<path fill="#724FB4" opacity="1.000000" stroke="none" 
	d="
M229.230164,161.643692 
	C228.533051,161.166504 228.159393,160.623154 227.530792,159.986420 
	C227.263870,159.720901 227.251907,159.548752 227.366302,159.148376 
	C228.432861,158.920151 229.373062,158.920151 230.776993,158.920151 
	C230.265884,160.030350 229.909760,160.803925 229.230164,161.643692 
z"/>
<path fill="#AF68BA" opacity="1.000000" stroke="none" 
	d="
M239.288193,143.715363 
	C238.718735,143.497269 238.515472,143.204758 238.054947,142.566223 
	C237.821274,141.894623 237.840744,141.568787 237.856079,141.242722 
	C238.188934,140.953613 238.521774,140.664490 238.944824,140.047562 
	C239.241486,141.026810 239.447952,142.333878 239.288193,143.715363 
z"/>
<path fill="#AF68BA" opacity="1.000000" stroke="none" 
	d="
M275.032471,351.641266 
	C274.395813,351.195099 273.714935,350.423676 273.035400,349.291626 
	C273.687225,349.725983 274.337738,350.521027 275.032471,351.641266 
z"/>
<path fill="#AF68BA" opacity="1.000000" stroke="none" 
	d="
M301.563293,158.298645 
	C302.276337,158.760635 302.671478,159.321823 303.079102,160.137314 
	C302.476196,159.727036 301.860809,159.062424 301.563293,158.298645 
z"/>
<path fill="#AF68BA" opacity="1.000000" stroke="none" 
	d="
M292.534546,142.952942 
	C292.771576,143.724350 292.669220,144.343048 292.386169,144.851334 
	C291.874054,144.105728 291.542633,143.470520 291.211212,142.835297 
	C291.539185,142.823608 291.867157,142.811905 292.534546,142.952942 
z"/>
<path fill="#F6F5F5" opacity="1.000000" stroke="none" 
	d="
M296.129486,136.202255 
	C295.890259,136.243698 295.687866,136.217987 295.185303,136.130524 
	C295.007355,135.160583 295.129547,134.252396 295.309692,132.913406 
	C295.652557,133.689651 295.821533,134.072174 295.931488,135.020111 
	C295.872467,135.585541 296.116882,135.990082 296.116882,135.990082 
	C296.116882,135.990082 296.166290,136.135086 296.129486,136.202255 
z"/>
<path fill="#F6F5F5" opacity="1.000000" stroke="none" 
	d="
M180.652588,333.056732 
	C180.830048,333.723846 180.699890,334.531860 180.380798,335.587524 
	C180.242905,334.956024 180.293945,334.076813 180.652588,333.056732 
z"/>
<path fill="#724FB4" opacity="1.000000" stroke="none" 
	d="
M290.517700,151.184357 
	C290.689575,151.673599 290.591949,152.118103 290.261658,152.648941 
	C290.102020,152.203384 290.175110,151.671494 290.517700,151.184357 
z"/>
<path fill="#F6F5F5" opacity="1.000000" stroke="none" 
	d="
M301.942505,333.324341 
	C302.034454,333.516907 302.209259,334.002991 302.215454,334.657715 
	C302.039703,334.423523 302.032532,334.020721 301.942505,333.324341 
z"/>
<path fill="#AF68BA" opacity="1.000000" stroke="none" 
	d="
M266.060211,340.662109 
	C265.773010,340.493286 265.424042,340.014984 265.061981,339.222961 
	C265.365417,339.390381 265.681915,339.871521 266.060211,340.662109 
z"/>
<path fill="#F6F5F5" opacity="1.000000" stroke="none" 
	d="
M185.668274,330.083557 
	C185.497787,330.419220 185.006882,330.724640 184.214325,331.001221 
	C184.391083,330.666016 184.869476,330.359711 185.668274,330.083557 
z"/>
<path fill="#F6F5F5" opacity="1.000000" stroke="none" 
	d="
M206.969788,330.679901 
	C206.623566,330.976776 206.158417,330.985413 205.344543,331.015747 
	C204.995819,331.037384 204.961197,330.566254 205.018127,330.336853 
	C205.666992,330.202148 206.258926,330.296906 206.969788,330.679901 
z"/>
<path fill="#AF68BA" opacity="1.000000" stroke="none" 
	d="
M242.979523,330.637970 
	C242.532913,330.833099 241.972855,330.722595 241.212128,330.400421 
	C241.629654,330.236633 242.247864,330.284485 242.979523,330.637970 
z"/>
<path fill="#F6F5F5" opacity="1.000000" stroke="none" 
	d="
M183.698364,330.981842 
	C183.531677,331.314819 183.044312,331.707520 182.236023,332.027252 
	C182.402634,331.650024 182.890152,331.345795 183.698364,330.981842 
z"/>
<path fill="#F6F5F5" opacity="1.000000" stroke="none" 
	d="
M284.321625,334.038330 
	C284.490021,333.716583 284.976379,333.344818 285.800049,333.020996 
	C285.638062,333.375366 285.138824,333.681824 284.321625,334.038330 
z"/>
<path fill="#AF68BA" opacity="1.000000" stroke="none" 
	d="
M271.233276,146.103363 
	C271.332275,145.872787 271.743317,145.715103 271.849701,145.907440 
	C271.682159,146.177841 271.408234,146.255890 271.233276,146.103363 
z"/>
<path fill="#724FB4" opacity="1.000000" stroke="none" 
	d="
M293.479309,147.039856 
	C293.119537,146.698166 293.055023,146.396393 293.522125,145.955124 
	C293.821106,145.865570 294.035645,146.037781 293.967560,146.280136 
	C293.836090,146.677887 293.772736,146.833282 293.709381,146.988678 
	C293.709381,146.988678 293.541840,147.129730 293.479309,147.039856 
z"/>
<path fill="#724FB4" opacity="1.000000" stroke="none" 
	d="
M293.707886,145.787506 
	C293.594635,145.709427 293.691376,145.290924 293.897339,145.231934 
	C294.103302,145.172943 294.502747,145.124725 294.502747,145.124725 
	C294.502747,145.124725 294.721680,145.462357 294.548889,145.714905 
	C294.376099,145.967453 294.035645,146.037781 294.035645,146.037781 
	C294.035645,146.037781 293.821106,145.865570 293.707886,145.787506 
z"/>
<path fill="#AF68BA" opacity="1.000000" stroke="none" 
	d="
M293.967560,146.280136 
	C294.035645,146.037781 294.376099,145.967453 294.542175,145.916382 
	C294.596527,146.222000 294.484802,146.578705 294.041229,146.962051 
	C293.772736,146.833282 293.836090,146.677887 293.967560,146.280136 
z"/>
<path fill="#AF68BA" opacity="1.000000" stroke="none" 
	d="
M270.766418,145.165405 
	C271.006927,145.154556 271.294006,145.358353 271.216217,145.516174 
	C270.934235,145.508072 270.730072,145.342178 270.766418,145.165405 
z"/>
<path fill="#AF68BA" opacity="1.000000" stroke="none" 
	d="
M296.264587,135.937164 
	C296.116882,135.990082 295.872467,135.585541 295.954529,135.365845 
	C296.358887,135.273529 296.484131,135.519562 296.264587,135.937164 
z"/>
<path fill="#AF68BA" opacity="1.000000" stroke="none" 
	d="
M295.258118,360.880432 
	C295.083130,360.552307 295.262939,360.316681 295.705688,360.023376 
	C295.785187,360.251923 295.666626,360.587677 295.258118,360.880432 
z"/>
<path fill="#A151CB" opacity="1.000000" stroke="none" 
	d="
M231.011108,193.685196 
	C230.879044,193.954010 230.698410,193.977692 230.244858,193.990143 
	C229.971939,193.978897 230.046967,193.534561 230.087692,193.313751 
	C230.512146,192.954254 230.790176,193.069977 231.011108,193.685196 
z"/>
<path fill="#AF68BA" opacity="1.000000" stroke="none" 
	d="
M270.056915,344.687256 
	C269.848328,344.754425 269.550171,344.558289 269.148743,344.108521 
	C269.352753,344.044586 269.660065,344.234253 270.056915,344.687256 
z"/>
<path fill="#AF68BA" opacity="1.000000" stroke="none" 
	d="
M269.056000,343.688812 
	C268.847107,343.755676 268.549805,343.559204 268.150269,343.109314 
	C268.354523,343.045807 268.661041,343.235657 269.056000,343.688812 
z"/>
<path fill="#AF68BA" opacity="1.000000" stroke="none" 
	d="
M268.048584,342.693634 
	C267.848358,342.755524 267.553223,342.559204 267.151611,342.113220 
	C267.347961,342.054199 267.650818,342.244812 268.048584,342.693634 
z"/>
<path fill="#AF68BA" opacity="1.000000" stroke="none" 
	d="
M267.043427,341.692993 
	C266.842285,341.760315 266.549316,341.569427 266.146790,341.134735 
	C266.342041,341.072205 266.646820,341.253510 267.043427,341.692993 
z"/>
<path fill="#AF68BA" opacity="1.000000" stroke="none" 
	d="
M172.826385,340.737396 
	C172.515045,340.850067 172.304138,340.638916 172.092010,340.144257 
	C172.302200,340.112244 172.580872,340.296478 172.826385,340.737396 
z"/>
<path fill="#F6F5F5" opacity="1.000000" stroke="none" 
	d="
M283.387573,334.889771 
	C283.286682,334.638550 283.428192,334.357483 283.830231,334.049500 
	C284.065247,334.372253 283.911652,334.651367 283.387573,334.889771 
z"/>
<path fill="#F6F5F5" opacity="1.000000" stroke="none" 
	d="
M207.861481,331.660278 
	C207.495132,331.893982 207.249863,331.714691 207.063400,331.144592 
	C207.293259,331.076538 207.580048,331.240997 207.861481,331.660278 
z"/>
<path fill="#AF68BA" opacity="1.000000" stroke="none" 
	d="
M243.998322,331.723816 
	C243.790344,331.786285 243.511246,331.585571 243.129120,331.143311 
	C243.326462,331.088043 243.626846,331.274323 243.998322,331.723816 
z"/>
<path fill="#F6F5F5" opacity="1.000000" stroke="none" 
	d="
M181.717026,331.995514 
	C181.824341,332.257446 181.672714,332.601379 181.217178,332.963257 
	C181.094864,332.679962 181.276474,332.378723 181.717026,331.995514 
z"/>
<path fill="#A151CB" opacity="1.000000" stroke="none" 
	d="
M208.222214,240.187439 
	C209.199081,224.333679 214.320007,210.513611 227.555527,200.644058 
	C229.013519,199.556870 230.474869,198.405930 231.640686,197.034622 
	C232.014694,196.594666 231.441879,195.349777 231.165619,194.191559 
	C232.122772,193.248932 233.216568,192.587906 234.677582,192.264236 
	C235.029785,193.067734 235.014786,193.533875 234.888596,194.063843 
	C234.777390,194.127686 234.756012,194.424957 234.756012,194.424957 
	C234.756012,194.424957 235.000015,194.000198 235.205429,193.834564 
	C235.267242,193.066299 235.123642,192.463669 234.980042,191.861038 
	C234.841644,191.508057 234.937210,191.237808 235.845825,191.049423 
	C236.662048,191.091537 236.899200,191.134537 237.136353,191.177536 
	C240.404205,196.555923 244.814377,200.289062 251.785202,201.448166 
	C255.876938,201.332443 259.514404,200.892471 263.098724,200.183716 
	C264.335114,199.939240 265.404022,198.906448 266.640259,198.541260 
	C266.833099,198.484299 268.102325,200.422928 267.856689,200.840485 
	C267.135803,202.066025 266.034058,203.182617 264.845062,203.996399 
	C261.109070,206.553452 256.817200,208.481064 253.589966,211.546570 
	C250.447647,214.531372 248.107178,218.473938 245.873260,222.266144 
	C244.031326,225.392929 242.859787,228.914612 241.391174,232.261307 
	C241.391174,232.261307 241.291534,232.240616 241.037155,232.312515 
	C240.724899,232.712128 240.667023,233.039841 240.609161,233.367554 
	C240.609146,233.367554 240.544830,233.502670 240.058228,233.381744 
	C237.792587,232.924683 236.026779,232.441971 234.232010,232.279556 
	C228.595871,231.769485 222.920151,231.217194 218.027527,235.061676 
	C218.015503,235.016983 218.082687,235.080643 217.707886,235.066925 
	C214.296143,236.764603 211.259186,238.476028 208.222214,240.187439 
M239.187424,204.263351 
	C238.800552,203.907303 238.212357,203.168045 238.055756,203.250305 
	C231.106979,206.900787 225.841370,212.184128 221.667999,219.881042 
	C227.902679,214.377731 233.355927,209.564209 239.187424,204.263351 
z"/>
<path fill="#724FB4" opacity="1.000000" stroke="none" 
	d="
M241.670837,232.091675 
	C242.859787,228.914612 244.031326,225.392929 245.873260,222.266144 
	C248.107178,218.473938 250.447647,214.531372 253.589966,211.546570 
	C256.817200,208.481064 261.109070,206.553452 264.845062,203.996399 
	C266.034058,203.182617 267.135803,202.066025 267.856689,200.840485 
	C268.102325,200.422928 266.833099,198.484299 266.640259,198.541260 
	C265.404022,198.906448 264.335114,199.939240 263.098724,200.183716 
	C259.514404,200.892471 255.876938,201.332443 252.180588,201.528412 
	C255.502747,199.834717 259.049500,198.766434 262.269653,197.076004 
	C266.241699,194.990875 269.942017,192.388077 274.612885,189.477325 
	C276.796570,192.033081 279.048248,194.668442 281.299194,197.985107 
	C282.435852,201.315628 283.573334,203.964859 284.967224,207.211380 
	C286.303741,206.632065 287.660950,206.043793 289.240295,205.590698 
	C289.635773,205.724472 289.809113,205.723068 290.378906,205.795395 
	C295.162567,204.541351 299.549774,203.213562 304.264099,202.021027 
	C308.410583,208.698563 312.230011,215.240860 316.049377,221.783173 
	C313.723907,224.473282 311.398438,227.163422 308.641479,230.315216 
	C307.149933,230.887085 306.089783,230.997314 304.701172,230.862518 
	C299.924683,230.487534 295.476624,230.357559 291.028595,230.227570 
	C287.044159,224.802200 282.764343,219.566162 279.138977,213.910599 
	C272.346649,203.314514 262.714233,202.896805 255.293060,213.209549 
	C250.818497,219.427597 246.396255,225.683289 241.670837,232.091675 
z"/>
<path fill="#000000" opacity="1.000000" stroke="none" 
	d="
M316.378754,221.731567 
	C312.230011,215.240860 308.410583,208.698563 304.352905,201.695221 
	C304.339355,200.219223 304.564087,199.204269 304.788818,198.189331 
	C305.169342,197.050064 305.549835,195.910797 305.858276,194.399811 
	C315.667755,190.706055 325.496552,187.204620 335.491119,184.267197 
	C336.892273,183.855377 339.105957,186.208069 341.022461,187.647583 
	C339.825745,191.735794 338.550110,195.457489 336.850555,199.592804 
	C336.220032,200.308792 336.013397,200.611160 335.806763,200.913544 
	C335.806763,200.913544 335.903229,200.911255 335.603271,200.989258 
	C334.899994,201.720322 334.496735,202.373413 334.093445,203.026489 
	C334.093445,203.026489 333.990570,203.418930 333.969360,203.620514 
	C330.363434,207.644882 326.808563,211.496231 323.182648,215.279480 
	C321.083557,217.469635 318.870087,219.550125 316.378754,221.731567 
z"/>
<path fill="#9DD7F1" opacity="1.000000" stroke="none" 
	d="
M304.424500,198.142700 
	C304.564087,199.204269 304.339355,200.219223 304.025818,201.559998 
	C299.549774,203.213562 295.162567,204.541351 290.259216,205.660522 
	C289.575867,205.266266 289.367737,205.163742 289.071625,205.088409 
	C289.024506,205.032516 288.931976,204.919312 288.931976,204.919312 
	C289.419403,203.975021 289.702911,202.430573 290.427521,202.184433 
	C294.916595,200.659409 299.504852,199.426193 304.424500,198.142700 
z"/>
<path fill="#AF68BA" opacity="1.000000" stroke="none" 
	d="
M237.366547,190.945496 
	C236.899200,191.134537 236.662048,191.091537 236.068939,190.978577 
	C234.373383,186.630173 233.033752,182.351715 231.671890,178.002258 
	C234.909790,176.297943 235.877762,177.270142 236.125244,180.163284 
	C236.427444,183.696121 237.089996,187.198135 237.366547,190.945496 
z"/>
<path fill="#724FB4" opacity="1.000000" stroke="none" 
	d="
M239.208466,174.170700 
	C242.949066,173.995285 246.326263,173.721695 249.701324,173.424072 
	C251.823090,173.236969 253.941681,173.013855 256.112244,173.529404 
	C252.378662,174.352112 248.679703,175.473679 244.901505,175.911728 
	C241.274658,176.332230 237.407104,176.575134 233.598907,172.183411 
	C236.229187,173.125626 237.536652,173.593994 239.208466,174.170700 
z"/>
<path fill="#9DD7F1" opacity="1.000000" stroke="none" 
	d="
M289.018158,205.455505 
	C287.660950,206.043793 286.303741,206.632065 284.967224,207.211380 
	C283.573334,203.964859 282.435852,201.315628 281.435608,198.333908 
	C283.826294,200.280457 286.079712,202.559494 288.632568,204.878922 
	C288.931976,204.919312 289.024506,205.032516 289.065063,205.171326 
	C289.105652,205.310120 289.018158,205.455490 289.018158,205.455505 
z"/>
<path fill="#0E0A15" opacity="1.000000" stroke="none" 
	d="
M293.738068,176.604599 
	C294.595184,176.818192 295.477844,176.995987 296.360535,177.173782 
	C296.200256,177.571594 296.039978,177.969391 295.879669,178.367188 
	C295.269684,177.885727 294.659729,177.404282 293.907074,176.701813 
	C293.764404,176.480789 293.763641,176.568787 293.738068,176.604599 
z"/>
<path fill="#AF68BA" opacity="1.000000" stroke="none" 
	d="
M265.006348,168.003754 
	C264.645691,168.484283 264.294342,168.977112 263.942993,169.469940 
	C263.766632,169.261917 263.590240,169.053909 263.413879,168.845886 
	C263.762207,168.553421 264.110504,168.260956 264.748779,168.004272 
	C265.038757,168.040070 265.015686,168.016052 265.006348,168.003754 
z"/>
<path fill="#DD4CBE" opacity="1.000000" stroke="none" 
	d="
M248.343475,293.962677 
	C245.223419,290.456635 234.668518,286.809387 230.280518,288.033844 
	C229.081024,286.863861 228.271286,285.604797 227.227600,284.102386 
	C225.671280,282.085175 224.533035,280.125275 222.978210,278.586182 
	C221.181732,276.807892 221.083679,275.397430 223.374084,273.492920 
	C223.728500,273.162567 224.079636,273.441925 224.104095,273.741211 
	C224.535782,274.457947 224.942993,274.875366 225.350220,275.292786 
	C225.591354,274.929993 225.832489,274.567200 226.467834,274.178680 
	C228.867630,273.838257 230.873184,273.523590 233.162415,273.471222 
	C238.296555,274.050415 243.147018,274.367340 248.352051,274.767609 
	C255.034332,272.139557 261.362091,269.428131 268.112854,266.789551 
	C270.615082,266.513184 272.756927,266.372833 274.760345,265.771332 
	C278.949066,264.513763 283.064758,263.013000 287.210449,261.612122 
	C291.098022,266.899597 294.985565,272.187103 299.137024,277.957428 
	C299.557678,278.702393 299.788879,278.838135 300.094513,278.847504 
	C300.172180,279.006714 300.249878,279.165955 300.317810,279.589661 
	C299.081177,280.800934 297.854279,281.747803 296.048065,282.863586 
	C295.000427,283.353088 294.532074,283.673645 294.063751,283.994202 
	C294.063751,283.994202 294.032532,284.044067 293.687683,284.051941 
	C292.589111,284.703156 291.835388,285.346527 291.081696,285.989899 
	C291.081696,285.989899 291.046082,286.062622 290.629272,286.041779 
	C288.839661,287.011749 287.466888,288.002563 286.094147,288.993378 
	C286.094147,288.993378 286.056427,289.094788 285.596436,289.049133 
	C279.788147,290.322937 274.413177,291.545197 269.102386,293.001495 
	C266.311218,293.766907 263.632355,294.941864 260.902771,295.931854 
	C256.852570,295.292847 252.802399,294.653870 248.343475,293.962677 
z"/>
<path fill="#9DD7F1" opacity="1.000000" stroke="none" 
	d="
M247.997498,274.684265 
	C243.147018,274.367340 238.296555,274.050415 233.416046,273.195312 
	C237.039230,269.455048 238.280396,265.609406 235.988724,261.162598 
	C234.053680,257.407867 230.794922,255.502930 226.556747,256.393890 
	C221.491882,257.458588 219.155411,260.989929 218.945206,266.044098 
	C216.922119,264.895844 213.625244,264.156433 213.102219,262.526733 
	C211.115082,256.335205 210.024765,249.855850 208.936508,242.908630 
	C212.210129,239.915649 215.146408,237.498138 218.082672,235.080627 
	C218.082687,235.080643 218.015503,235.016983 218.457748,235.096695 
	C220.501923,234.797455 222.088928,234.186646 223.708542,234.082367 
	C228.862732,233.750519 234.247559,232.536316 238.444885,237.046661 
	C237.116745,238.940201 235.791031,240.835449 234.460007,242.726974 
	C230.940369,247.728714 231.210098,251.242264 235.349823,254.273941 
	C240.052704,257.718018 246.649200,257.444885 249.725449,253.492142 
	C252.054077,250.500000 254.116730,247.300888 256.955933,244.185211 
	C264.015320,246.301422 267.414764,241.917465 271.025391,237.991470 
	C272.151031,239.105209 273.522400,240.062042 274.353699,241.363770 
	C276.399628,244.567337 278.197205,247.929489 279.873108,251.751617 
	C276.092194,254.924484 272.590607,257.655884 268.961151,260.205109 
	C262.011688,265.086182 254.989502,269.863739 247.997498,274.684265 
z"/>
<path fill="#9DD7F1" opacity="1.000000" stroke="none" 
	d="
M312.844391,231.884598 
	C314.017029,233.349762 315.763550,234.858582 315.740570,236.339905 
	C315.655029,241.847733 314.987640,247.346512 314.166504,252.856216 
	C310.505829,252.276276 307.217346,251.688828 303.928894,251.101364 
	C302.267792,248.660538 300.606689,246.219711 299.162720,243.279129 
	C303.629150,239.174591 307.878479,235.569794 312.127808,231.964996 
	C312.127808,231.965012 312.606018,231.915619 312.844391,231.884598 
z"/>
<path fill="#F6F5F5" opacity="1.000000" stroke="none" 
	d="
M248.352051,274.767609 
	C254.989502,269.863739 262.011688,265.086182 268.961151,260.205109 
	C272.590607,257.655884 276.092194,254.924484 279.960205,252.099976 
	C281.206177,252.708954 282.143463,253.493317 283.065063,254.910950 
	C277.929504,259.268372 272.809662,262.992554 267.689819,266.716736 
	C261.362091,269.428131 255.034332,272.139557 248.352051,274.767609 
z"/>
<path fill="#724FB4" opacity="1.000000" stroke="none" 
	d="
M271.083435,237.630890 
	C267.414764,241.917465 264.015320,246.301422 257.254059,244.027725 
	C259.868774,239.230362 262.843506,234.581818 266.386230,229.045685 
	C268.393280,232.517075 269.767395,234.893677 271.083435,237.630890 
z"/>
<path fill="#AF68BA" opacity="1.000000" stroke="none" 
	d="
M268.112854,266.789551 
	C272.809662,262.992554 277.929504,259.268372 283.201538,255.215027 
	C284.655182,256.901093 285.956604,258.916290 287.234253,261.271820 
	C283.064758,263.013000 278.949066,264.513763 274.760345,265.771332 
	C272.756927,266.372833 270.615082,266.513184 268.112854,266.789551 
z"/>
<path fill="#9DD7F1" opacity="1.000000" stroke="none" 
	d="
M290.923096,230.518036 
	C295.476624,230.357559 299.924683,230.487534 304.656006,231.202332 
	C302.032898,234.219330 299.126495,236.651474 296.220093,239.083633 
	C294.419281,236.325256 292.618439,233.566879 290.923096,230.518036 
z"/>
<path fill="#F6F5F5" opacity="1.000000" stroke="none" 
	d="
M296.273987,239.379303 
	C299.126495,236.651474 302.032898,234.219330 304.984497,231.447357 
	C306.089783,230.997314 307.149933,230.887085 308.584595,230.629272 
	C309.824524,230.836517 310.689941,231.191345 311.841583,231.755585 
	C307.878479,235.569794 303.629150,239.174591 299.067383,242.946365 
	C297.945892,241.967239 297.136902,240.821106 296.273987,239.379303 
z"/>
<path fill="#AF68BA" opacity="1.000000" stroke="none" 
	d="
M304.002747,251.438095 
	C307.217346,251.688828 310.505829,252.276276 313.989319,253.233246 
	C313.464142,256.263031 312.743927,258.923309 311.971375,261.985352 
	C309.304901,258.849701 306.690765,255.312256 304.002747,251.438095 
z"/>
<path fill="#724FB4" opacity="1.000000" stroke="none" 
	d="
M238.694702,236.895279 
	C234.247559,232.536316 228.862732,233.750519 223.708542,234.082367 
	C222.088928,234.186646 220.501923,234.797455 218.469788,235.141388 
	C222.920151,231.217194 228.595871,231.769485 234.232010,232.279556 
	C236.026779,232.441971 237.792587,232.924683 240.015533,233.443176 
	C239.954468,234.664978 239.449493,235.704437 238.694702,236.895279 
z"/>
<path fill="#724FB4" opacity="1.000000" stroke="none" 
	d="
M240.808472,233.259949 
	C240.667023,233.039841 240.724899,232.712128 241.062134,232.356842 
	C241.352829,232.653381 241.241592,232.927734 240.808472,233.259949 
z"/>
<path fill="#724FB4" opacity="1.000000" stroke="none" 
	d="
M300.072693,278.628845 
	C299.788879,278.838135 299.557678,278.702393 299.348633,278.242310 
	C299.616486,278.024536 299.868042,278.146484 300.072693,278.628845 
z"/>
<path fill="#000000" opacity="1.000000" stroke="none" 
	d="
M203.926315,356.619629 
	C202.037827,357.025085 200.224594,357.025085 197.974808,357.025085 
	C197.974808,349.203766 197.974808,341.580261 198.094513,333.504700 
	C198.214233,333.052612 198.091324,332.978760 198.412460,332.984070 
	C199.468552,332.967316 200.203491,332.945221 200.938446,332.923096 
	C202.405655,334.540680 203.872864,336.158264 205.641388,337.916687 
	C205.295654,344.109741 204.648605,350.161957 203.926315,356.619629 
z"/>
<path fill="#A151CB" opacity="1.000000" stroke="none" 
	d="
M191.966644,347.862335 
	C192.086578,343.303436 192.205780,339.220703 192.324982,335.137970 
	C193.017593,335.154175 193.710205,335.170380 194.402832,335.186584 
	C195.881958,342.635956 194.554291,350.254456 195.127975,357.758392 
	C194.567184,357.835754 194.006378,357.913116 193.445587,357.990479 
	C192.952362,354.773132 192.459137,351.555817 191.966644,347.862335 
z"/>
<path fill="#F6F5F5" opacity="1.000000" stroke="none" 
	d="
M200.814270,332.614319 
	C200.203491,332.945221 199.468552,332.967316 198.368851,333.040955 
	C198.899429,332.830231 199.794754,332.567902 200.814270,332.614319 
z"/>
<path fill="#000000" opacity="1.000000" stroke="none" 
	d="
M161.985809,332.680603 
	C162.191589,333.020477 162.063049,333.501190 162.128265,333.741028 
	C161.718582,335.868347 161.243683,337.755859 160.977570,338.813507 
	C159.099136,338.420807 157.381073,338.166779 155.736420,337.669830 
	C155.002350,337.447998 154.095062,336.856018 153.858307,336.213806 
	C153.647919,335.643097 154.093216,334.254608 154.528992,334.117645 
	C156.898148,333.373047 159.354004,332.904358 161.985809,332.680603 
z"/>
<path fill="#0E0A15" opacity="1.000000" stroke="none" 
	d="
M219.103516,266.342285 
	C219.155411,260.989929 221.491882,257.458588 226.556747,256.393890 
	C230.794922,255.502930 234.053680,257.407867 235.988724,261.162598 
	C238.280396,265.609406 237.039230,269.455048 233.132385,272.932983 
	C230.873184,273.523590 228.867630,273.838257 226.155457,273.998474 
	C224.992432,273.709930 224.536041,273.575928 224.079636,273.441925 
	C224.079636,273.441925 223.728500,273.162567 223.505356,273.149231 
	C221.942093,270.970734 220.601974,268.805634 219.103516,266.342285 
z"/>
<path fill="#724FB4" opacity="1.000000" stroke="none" 
	d="
M217.707886,235.066910 
	C215.146408,237.498138 212.210129,239.915649 209.005035,242.524628 
	C208.466217,242.650879 208.256165,242.501358 207.992950,242.101883 
	C207.943222,241.544205 208.006592,241.152161 208.146088,240.473785 
	C211.259186,238.476028 214.296143,236.764603 217.707886,235.066910 
z"/>
<path fill="#F6F5F5" opacity="1.000000" stroke="none" 
	d="
M352.011902,346.627228 
	C351.007355,348.111145 349.943604,349.200958 348.879852,350.290802 
	C348.543976,350.053040 348.208069,349.815277 347.872192,349.577515 
	C348.405060,346.900604 348.937927,344.223694 349.471069,341.205414 
	C350.017120,340.864288 351.016876,340.767517 351.040741,340.879242 
	C351.418610,342.648071 351.671295,344.443665 352.011902,346.627228 
z"/>
<path fill="#F6F5F5" opacity="1.000000" stroke="none" 
	d="
M347.932556,338.605042 
	C347.931091,338.980042 347.447083,339.015991 347.205994,338.988220 
	C346.964935,338.960480 346.987427,338.983093 347.012238,338.619507 
	C347.362732,337.507874 347.688385,336.759827 348.014038,336.011749 
	C348.014038,336.011749 347.997375,335.997284 347.988617,335.988586 
	C347.964569,336.729980 347.949280,337.480011 347.932556,338.605042 
z"/>
<path fill="#AF68BA" opacity="1.000000" stroke="none" 
	d="
M261.339172,295.972198 
	C263.632355,294.941864 266.311218,293.766907 269.102386,293.001495 
	C274.413177,291.545197 279.788147,290.322937 285.542542,289.044678 
	C280.819550,291.051117 275.762238,293.244720 270.532196,294.888733 
	C267.768616,295.757416 264.704193,295.668884 261.339172,295.972198 
z"/>
<path fill="#AF68BA" opacity="1.000000" stroke="none" 
	d="
M286.437622,289.036163 
	C287.466888,288.002563 288.839661,287.011749 290.589417,286.049011 
	C289.571320,287.077698 288.176208,288.078339 286.437622,289.036163 
z"/>
<path fill="#AF68BA" opacity="1.000000" stroke="none" 
	d="
M291.397797,285.983612 
	C291.835388,285.346527 292.589111,284.703156 293.659241,284.059479 
	C293.221741,284.698547 292.467834,285.337952 291.397797,285.983612 
z"/>
<path fill="#AF68BA" opacity="1.000000" stroke="none" 
	d="
M294.357056,283.980042 
	C294.532074,283.673645 295.000427,283.353088 295.771362,283.041321 
	C295.599396,283.355347 295.124847,283.660614 294.357056,283.980042 
z"/>
<path fill="#F6F5F5" opacity="1.000000" stroke="none" 
	d="
M322.990784,333.006348 
	C323.377228,333.378632 323.769867,333.746979 324.339203,334.324219 
	C324.320801,337.034668 324.125732,339.536224 323.665588,342.403412 
	C323.400543,342.769043 322.939575,342.828552 322.988892,342.394348 
	C323.027740,338.971130 323.017273,335.982147 323.006805,332.993134 
	C323.006805,332.993134 322.996979,333.002441 322.990784,333.006348 
z"/>
<path fill="#AF68BA" opacity="1.000000" stroke="none" 
	d="
M322.939575,342.828552 
	C322.939575,342.828552 323.400543,342.769043 323.631470,342.787231 
	C323.411835,343.489532 322.961273,344.173676 322.158936,344.843933 
	C321.807190,344.830017 321.750244,344.390076 321.850037,343.881714 
	C322.279755,343.191742 322.609650,343.010132 322.939575,342.828552 
z"/>
<path fill="#AF68BA" opacity="1.000000" stroke="none" 
	d="
M321.105560,346.874695 
	C320.953339,346.314667 321.078186,345.571869 321.515930,344.825378 
	C321.680084,345.445099 321.531372,346.068512 321.105560,346.874695 
z"/>
<path fill="#AF68BA" opacity="1.000000" stroke="none" 
	d="
M295.733521,353.229736 
	C296.040741,354.081268 296.091583,355.141266 296.062561,356.592896 
	C295.814148,355.802429 295.645630,354.620331 295.733521,353.229736 
z"/>
<path fill="#AF68BA" opacity="1.000000" stroke="none" 
	d="
M334.417603,202.966583 
	C334.496735,202.373413 334.899994,201.720322 335.585144,200.944519 
	C335.491913,201.516754 335.116852,202.211716 334.417603,202.966583 
z"/>
<path fill="#AF68BA" opacity="1.000000" stroke="none" 
	d="
M336.072815,200.819580 
	C336.013397,200.611160 336.220032,200.308792 336.688629,199.907440 
	C336.746674,200.114151 336.542786,200.419876 336.072815,200.819580 
z"/>
<path fill="#F6F5F5" opacity="1.000000" stroke="none" 
	d="
M344.995117,338.007172 
	C343.398560,337.894562 341.798248,337.785522 339.181824,337.607239 
	C340.082153,336.130035 340.715759,335.090393 341.678223,334.027710 
	C342.007080,334.004669 342.031158,334.027039 342.010010,334.388672 
	C341.769684,335.421997 341.550446,336.093689 341.387909,336.591766 
	C342.597778,337.072906 343.790436,337.547180 344.983124,338.021484 
	C344.983124,338.021484 344.991394,338.010773 344.995117,338.007172 
z"/>
<path fill="#F6F5F5" opacity="1.000000" stroke="none" 
	d="
M342.016907,334.016418 
	C342.181885,333.729645 342.337036,333.431122 342.753967,333.072845 
	C343.015808,333.013062 343.003021,333.002777 342.965363,333.264191 
	C342.628845,333.692749 342.330017,333.859894 342.031158,334.027039 
	C342.031158,334.027039 342.007080,334.004669 342.016907,334.016418 
z"/>
<path fill="#F6F5F5" opacity="1.000000" stroke="none" 
	d="
M289.976440,159.712494 
	C289.567017,160.205032 289.207581,160.368301 288.848145,160.531586 
	C288.739532,160.144653 288.630920,159.757736 288.522308,159.370834 
	C289.023682,159.374969 289.525085,159.379105 289.976440,159.712494 
z"/>
<path fill="#000000" opacity="1.000000" stroke="none" 
	d="
M322.988892,342.394348 
	C322.609650,343.010132 322.279755,343.191742 321.887146,343.662994 
	C321.206085,343.114685 320.142639,342.320740 320.054535,341.430298 
	C319.809967,338.958221 319.971191,336.446014 320.007141,333.496094 
	C320.783234,333.016907 321.524353,332.991302 322.636108,332.979431 
	C323.017273,335.982147 323.027740,338.971130 322.988892,342.394348 
z"/>
<path fill="#000000" opacity="1.000000" stroke="none" 
	d="
M342.010010,334.388672 
	C342.330017,333.859894 342.628845,333.692749 342.960571,333.259277 
	C344.678253,333.737640 347.875427,330.941406 348.044586,335.587524 
	C347.688385,336.759827 347.362732,337.507874 347.000488,338.606506 
	C346.494629,338.669373 346.025299,338.381653 345.269562,338.057709 
	C343.790436,337.547180 342.597778,337.072906 341.387909,336.591766 
	C341.550446,336.093689 341.769684,335.421997 342.010010,334.388672 
z"/>
<path fill="#F6F5F5" opacity="1.000000" stroke="none" 
	d="
M237.543274,141.157883 
	C237.840744,141.568787 237.821274,141.894623 237.794067,142.464630 
	C237.246155,142.551971 236.701843,142.394897 236.157516,142.237808 
	C236.515167,141.849548 236.872833,141.461304 237.543274,141.157883 
z"/>
<path fill="#F6F5F5" opacity="1.000000" stroke="none" 
	d="
M238.998291,204.507019 
	C233.355927,209.564209 227.902679,214.377731 221.667999,219.881042 
	C225.841370,212.184128 231.106979,206.900787 238.055756,203.250305 
	C238.212357,203.168045 238.800552,203.907303 238.998291,204.507019 
z"/>
<path fill="#DD4CBE" opacity="1.000000" stroke="none" 
	d="
M234.999603,191.892899 
	C235.123642,192.463669 235.267242,193.066299 235.205414,193.834473 
	C235.000000,194.000000 234.999786,194.000000 234.999786,194.000000 
	C235.014786,193.533875 235.029785,193.067734 235.001831,192.251526 
	C234.958893,191.901428 235.019165,191.924759 234.999603,191.892899 
z"/>
<path fill="#DD4CBE" opacity="1.000000" stroke="none" 
	d="
M235.000000,194.000092 
	C235.000015,194.000198 234.756012,194.424957 234.756012,194.424957 
	C234.756012,194.424957 234.777390,194.127686 234.888580,194.063843 
	C234.999786,194.000000 235.000000,194.000000 235.000000,194.000092 
z"/>
<path fill="#F6F5F5" opacity="1.000000" stroke="none" 
	d="
M289.240295,205.590698 
	C289.018158,205.455490 289.105652,205.310120 289.112183,205.227219 
	C289.367737,205.163742 289.575867,205.266266 289.862793,205.586792 
	C289.809113,205.723068 289.635773,205.724472 289.240295,205.590698 
z"/>
<path fill="#AF68BA" opacity="1.000000" stroke="none" 
	d="
M224.104095,273.741211 
	C224.536041,273.575928 224.992432,273.709930 225.761230,274.024170 
	C225.832489,274.567200 225.591354,274.929993 225.350220,275.292786 
	C224.942993,274.875366 224.535782,274.457947 224.104095,273.741211 
z"/>
</svg>